<svg xmlns="http://www.w3.org/2000/svg" width="40" height="40" viewBox="0 0 40 40">
  <g id="add" transform="translate(0.25 0.25)">
    <path id="Path_1159" data-name="Path 1159" d="M21.7,32.4A10.7,10.7,0,1,1,32.4,21.7,10.71,10.71,0,0,1,21.7,32.4Zm0-18.927A8.229,8.229,0,1,0,29.927,21.7,8.239,8.239,0,0,0,21.7,13.469Z" transform="translate(7.104 7.104)" fill="#222" stroke="#222" stroke-width="0.5"/>
    <path id="Path_1160" data-name="Path 1160" d="M17.984,25.521a1.235,1.235,0,0,1-1.234-1.234V15.234a1.234,1.234,0,0,1,2.469,0v9.052A1.235,1.235,0,0,1,17.984,25.521Z" transform="translate(10.818 9.042)" fill="#222" stroke="#222" stroke-width="0.5"/>
    <path id="Path_1161" data-name="Path 1161" d="M24.286,19.219H15.234a1.234,1.234,0,0,1,0-2.469h9.052a1.234,1.234,0,1,1,0,2.469Z" transform="translate(9.042 10.818)" fill="#222" stroke="#222" stroke-width="0.5"/>
    <path id="Path_1162" data-name="Path 1162" d="M15.125,34.563H4.526A4.53,4.53,0,0,1,0,30.036V4.526A4.53,4.53,0,0,1,4.526,0H23.453a4.53,4.53,0,0,1,4.526,4.526V14.549a1.234,1.234,0,0,1-2.469,0V4.526a2.06,2.06,0,0,0-2.057-2.057H4.526A2.06,2.06,0,0,0,2.469,4.526v25.51a2.06,2.06,0,0,0,2.057,2.057h10.6a1.234,1.234,0,1,1,0,2.469Z" fill="#222" stroke="#222" stroke-width="0.5"/>
    <path id="Path_1163" data-name="Path 1163" d="M19.87,10.469H4.234A1.234,1.234,0,1,1,4.234,8H19.87a1.234,1.234,0,0,1,0,2.469Z" transform="translate(1.938 5.167)" fill="#222" stroke="#222" stroke-width="0.5"/>
    <path id="Path_1164" data-name="Path 1164" d="M13.286,14.469H4.234a1.234,1.234,0,1,1,0-2.469h9.052a1.234,1.234,0,1,1,0,2.469Z" transform="translate(1.938 7.75)" fill="#222" stroke="#222" stroke-width="0.5"/>
    <path id="Path_1165" data-name="Path 1165" d="M11.641,6.469H4.234A1.234,1.234,0,0,1,4.234,4h7.406a1.234,1.234,0,0,1,0,2.469Z" transform="translate(1.938 2.583)" fill="#222" stroke="#222" stroke-width="0.5"/>
  </g>
</svg>
