<svg xmlns="http://www.w3.org/2000/svg" xmlns:xlink="http://www.w3.org/1999/xlink" width="38" height="38" viewBox="0 0 38 38">
  <defs>
    <clipPath id="clip-Artboard_78">
      <rect width="38" height="38"/>
    </clipPath>
  </defs>
  <g id="Artboard_78" data-name="Artboard – 78" clip-path="url(#clip-Artboard_78)">
    <g id="support" transform="translate(0.311 -0.013)">
      <g id="Group_543" data-name="Group 543" transform="translate(0 17.372)">
        <g id="Group_542" data-name="Group 542">
          <path id="Path_1071" data-name="Path 1071" d="M36.49,237.183a3.309,3.309,0,0,0-4.557.275l-3.243,3.482a3.317,3.317,0,0,0-3.162-2.329H19.74c-.439,0-.586-.168-1.349-.755a7.741,7.741,0,0,0-10.178.024l-2.128,1.873a3.3,3.3,0,0,0-3.035-.038l-2.44,1.22a1.1,1.1,0,0,0-.494,1.481l6.621,13.242a1.1,1.1,0,0,0,1.481.494l2.44-1.22a3.308,3.308,0,0,0,1.829-3.077h13.04a7.761,7.761,0,0,0,6.18-3.09L37,241.7A3.3,3.3,0,0,0,36.49,237.183ZM9.671,252.956l-1.453.727L2.584,242.415l1.454-.727a1.1,1.1,0,0,1,1.48.494l4.647,9.294A1.1,1.1,0,0,1,9.671,252.956Zm25.568-12.581-5.3,7.064a5.543,5.543,0,0,1-4.414,2.207H11.717l-4.135-8.271,2.089-1.838a5.531,5.531,0,0,1,7.29,0,3.906,3.906,0,0,0,2.779,1.282h5.788a1.1,1.1,0,1,1,0,2.207H19.892a1.1,1.1,0,0,0,0,2.207h6.375a3.32,3.32,0,0,0,2.423-1.054l4.858-5.215a1.1,1.1,0,0,1,1.691,1.412Z" transform="translate(0 -235.959)"/>
        </g>
      </g>
      <g id="Group_545" data-name="Group 545" transform="translate(13.316 0.013)">
        <g id="Group_544" data-name="Group 544" transform="translate(0 0)">
          <path id="Path_1072" data-name="Path 1072" d="M190.881,7.543A4.4,4.4,0,0,0,192.1,4.5,4.474,4.474,0,0,0,187.688.013,4.547,4.547,0,0,0,183.2,4.5a4.332,4.332,0,0,0,1.262,3.052,6.732,6.732,0,0,0-3.469,5.85v1.1a1.1,1.1,0,0,0,1.1,1.1h11.108a1.1,1.1,0,0,0,1.1-1.1V13.4A6.727,6.727,0,0,0,190.881,7.543ZM187.688,2.22A2.275,2.275,0,0,1,189.9,4.5a2.21,2.21,0,0,1-2.207,2.207A2.275,2.275,0,0,1,185.408,4.5,2.341,2.341,0,0,1,187.688,2.22ZM183.2,13.4a4.547,4.547,0,0,1,4.487-4.487A4.456,4.456,0,0,1,192.1,13.4Z" transform="translate(-180.994 -0.013)"/>
        </g>
      </g>
    </g>
  </g>
</svg>
