<svg xmlns="http://www.w3.org/2000/svg" xmlns:xlink="http://www.w3.org/1999/xlink" width="33" height="33" viewBox="0 0 33 33">
  <defs>
    <linearGradient id="linear-gradient" x2="0.638" y2="0.879" gradientUnits="objectBoundingBox">
      <stop offset="0" stop-color="#f5a341"/>
      <stop offset="1" stop-color="#ee1d50"/>
    </linearGradient>
    <clipPath id="clip-Artboard_47">
      <rect width="33" height="33"/>
    </clipPath>
  </defs>
  <g id="Artboard_47" data-name="Artboard – 47" clip-path="url(#clip-Artboard_47)">
    <path id="adress" d="M7.72,13.188a5.474,5.474,0,0,0,5.468,5.468,1.287,1.287,0,1,1,0,2.573,8.041,8.041,0,1,1,8.041-8.041,1.287,1.287,0,1,1-2.573,0,5.468,5.468,0,1,0-10.936,0ZM8.73,24.567c-3.3-3.615-6.153-6.738-6.157-11.392a10.614,10.614,0,0,1,21.228,0,1.286,1.286,0,0,0,1.287,1.285h0a1.286,1.286,0,0,0,1.285-1.288A13.187,13.187,0,0,0,3.868,3.858,13.1,13.1,0,0,0,0,13.175a13.778,13.778,0,0,0,2.177,7.354A39.151,39.151,0,0,0,6.83,26.3a43.922,43.922,0,0,1,4.884,6.035,1.287,1.287,0,1,0,2.175-1.375,45.906,45.906,0,0,0-5.159-6.4Zm23.868.617a1.287,1.287,0,0,1-1.818.082l-.161-.147v4.257A3.627,3.627,0,0,1,27,33h-7.23a3.627,3.627,0,0,1-3.622-3.625v-4.2l-.1.088a1.287,1.287,0,1,1-1.736-1.9l6.64-6.071a3.63,3.63,0,0,1,4.923,0l4.255,3.89a1.287,1.287,0,0,1,.133.121l2.253,2.06a1.286,1.286,0,0,1,.081,1.818Zm-4.552-2.418-3.906-3.571a1.069,1.069,0,0,0-1.45,0l-3.971,3.63v6.551a1.052,1.052,0,0,0,1.049,1.052H27a1.052,1.052,0,0,0,1.049-1.052Zm0,0" fill="url(#linear-gradient)"/>
  </g>
</svg>
