<svg xmlns="http://www.w3.org/2000/svg" width="37.801" height="37.8"><defs><linearGradient id="prefix__b" x1=".22" y1="-.059" x2=".697" y2=".954" gradientUnits="objectBoundingBox"><stop offset="0" stop-color="#f5a341"/><stop offset="1" stop-color="#ee1d50"/></linearGradient><clipPath id="prefix__a"><path d="M0 0h37.8v37.8H0z"/></clipPath></defs><g data-name="Artboard – 46" clip-path="url(#prefix__a)"><path d="M34.838 14.583V1.567a1.474 1.474 0 10-2.948 0v2.7a21.982 21.982 0 00-26.043 0V1.476a1.474 1.474 0 00-2.948 0v13.107a3.691 3.691 0 00-2.9 3.6v6.486a1.474 1.474 0 001.474 1.474h2.876v1.425a1.474 1.474 0 002.948 0v-1.425h23.144v1.425a1.474 1.474 0 102.948 0v-1.425h2.875a1.474 1.474 0 001.474-1.474v-6.486a3.691 3.691 0 00-2.9-3.6zM31.89 8.106V14.5h-5.749v-4.327A1.474 1.474 0 0024.667 8.7H13.07a1.474 1.474 0 00-1.47 1.473V14.5H5.847V8.106a19.016 19.016 0 0126.043 0zM14.545 14.5v-2.85h8.648v2.85zm20.245 8.7H2.948v-5.017a.738.738 0 01.737-.737h30.367a.738.738 0 01.737.737zm0 0" transform="translate(0 4.001)" fill="url(#prefix__b)"/></g></svg>