<svg id="bell" xmlns="http://www.w3.org/2000/svg" width="24.14" height="29.46" viewBox="0 0 24.14 29.46">
  <path id="Path_896" d="M22.8,19.549,22.19,14.3a10.352,10.352,0,0,0-7.064-9.746V3.231a3.078,3.078,0,1,0-6.154,0V4.554a10.2,10.2,0,0,0-7.064,9.7L1.3,19.549A3.427,3.427,0,0,0,0,22.239v.221c0,2.558,2.47,2.558,3.424,2.558H6.848a5.2,5.2,0,0,0,5.027,4.542A5.2,5.2,0,0,0,16.9,25.018h3.814c.91,0,3.424,0,3.424-2.558v-.221A3.608,3.608,0,0,0,22.8,19.549ZM11.832,26.958a2.454,2.454,0,0,1-2.254-1.544h4.507A2.454,2.454,0,0,1,11.832,26.958Zm9.708-4.542a5.709,5.709,0,0,1-.867.044H3.424a5.709,5.709,0,0,1-.867-.044v-.132a.835.835,0,0,1,.477-.794l.65-.309.737-6.659v-.132A7.751,7.751,0,0,1,10.445,6.8l1-.221v-3.4a.563.563,0,1,1,1.127,0V6.539l1,.221a7.715,7.715,0,0,1,6.024,7.586l.78,6.792.65.309a.835.835,0,0,1,.477.794l.043.176Z" transform="translate(0 -0.1)" fill="#bcbcbc"/>
</svg>
