<svg xmlns="http://www.w3.org/2000/svg" xmlns:xlink="http://www.w3.org/1999/xlink" width="36.5" height="36.5" viewBox="0 0 36.5 36.5">
  <defs>
    <clipPath id="clip-Artboard_35">
      <rect width="36.5" height="36.5"/>
    </clipPath>
  </defs>
  <g id="Artboard_35" data-name="Artboard – 35" clip-path="url(#clip-Artboard_35)">
    <g id="delete" transform="translate(5.156 -0.001)">
      <path id="Path_1026" data-name="Path 1026" d="M22.351,21.772l.884-10.889h.832a1.061,1.061,0,0,0,1.046-1.235l-.451-2.7a3.063,3.063,0,0,0-3.031-2.566h-3.79V3.7A3.711,3.711,0,0,0,14.131,0H11A3.711,3.711,0,0,0,7.288,3.7v.678H3.5A3.063,3.063,0,0,0,.467,6.947l-.451,2.7a1.06,1.06,0,0,0,1.046,1.235h.832L3.4,29.372A4.164,4.164,0,0,0,7.549,33.2h5.5a7.59,7.59,0,1,0,9.306-11.424ZM9.409,3.7A1.587,1.587,0,0,1,11,2.122h3.133A1.587,1.587,0,0,1,15.72,3.7v.678H9.409ZM2.315,8.762,2.56,7.3A.948.948,0,0,1,3.5,6.5H21.631a.948.948,0,0,1,.938.794l.245,1.465Zm9.6,22.312H7.549A2.054,2.054,0,0,1,5.51,29.2L4.022,10.883H21.107l-.832,10.25a7.6,7.6,0,0,0-8.771,7.49,7.531,7.531,0,0,0,.407,2.45ZM19.1,34.083a5.459,5.459,0,1,1,5.478-5.459A5.475,5.475,0,0,1,19.1,34.083Zm0,0" transform="translate(0 0)" fill="#222"/>
      <path id="Path_1027" data-name="Path 1027" d="M231.047,360.02a1.061,1.061,0,0,0-1.5,0l-1.384,1.381-1.384-1.381a1.061,1.061,0,0,0-1.5,1.5l1.38,1.376-1.38,1.376a1.061,1.061,0,0,0,1.5,1.5l1.384-1.381,1.384,1.381a1.061,1.061,0,1,0,1.5-1.5l-1.38-1.376,1.38-1.376A1.06,1.06,0,0,0,231.047,360.02Zm0,0" transform="translate(-209.06 -334.273)" fill="#222"/>
    </g>
  </g>
</svg>
