<svg xmlns="http://www.w3.org/2000/svg" xmlns:xlink="http://www.w3.org/1999/xlink" width="35" height="35" viewBox="0 0 35 35">
  <defs>
    <clipPath id="clip-Artboard_40">
      <rect width="35" height="35"/>
    </clipPath>
  </defs>
  <g id="Artboard_40" data-name="Artboard – 40" clip-path="url(#clip-Artboard_40)">
    <g id="trash" transform="translate(-11.836 1)">
      <g id="Group_430" data-name="Group 430" transform="translate(17.028 6.478)">
        <g id="Group_429" data-name="Group 429">
          <path id="Path_1030" data-name="Path 1030" d="M85.1,98.512l-2.146,24.459H67.219L65.073,98.512l-2.719.238,2.185,24.9a2.3,2.3,0,0,0,2.268,2.048h16.56a2.3,2.3,0,0,0,2.27-2.064L87.821,98.75Z" transform="translate(-62.354 -98.512)" fill="#5d5d5d" stroke="#5d5d5d" stroke-width="1"/>
        </g>
      </g>
      <g id="Group_432" data-name="Group 432" transform="translate(22.482)">
        <g id="Group_431" data-name="Group 431">
          <path id="Path_1031" data-name="Path 1031" d="M157.581,0H147.572A2.277,2.277,0,0,0,145.3,2.275V6.6h2.73V2.73h9.1V6.6h2.73V2.275A2.277,2.277,0,0,0,157.581,0Z" transform="translate(-145.297)" fill="#5d5d5d" stroke="#5d5d5d" stroke-width="1"/>
        </g>
      </g>
      <g id="Group_434" data-name="Group 434" transform="translate(13.838 5.232)">
        <g id="Group_433" data-name="Group 433">
          <path id="Path_1032" data-name="Path 1032" d="M44.32,79.568H15.2a1.365,1.365,0,0,0,0,2.73H44.32a1.365,1.365,0,1,0,0-2.73Z" transform="translate(-13.838 -79.568)" fill="#5d5d5d" stroke="#5d5d5d" stroke-width="1"/>
        </g>
      </g>
    </g>
  </g>
</svg>
