<?xml version="1.0" encoding="utf-8"?>
<!-- Generator: Adobe Illustrator 23.0.5, SVG Export Plug-In . SVG Version: 6.00 Build 0)  -->
<svg version="1.1" id="Layer_1" xmlns="http://www.w3.org/2000/svg" xmlns:xlink="http://www.w3.org/1999/xlink" x="0px" y="0px"
	 viewBox="0 0 38 38" style="enable-background:new 0 0 38 38;" xml:space="preserve">
<g>
	<path d="M37,33c-0.2-0.3-0.6-0.4-0.9-0.4l-34.5,0c-0.4,0-0.7,0.1-1,0.4c-0.3,0.2-0.4,0.6-0.4,0.9c0,0.7,0.6,1.4,1.4,1.4h34.4
		c0,0,0,0,0,0c0.7,0,1.3-0.6,1.4-1.3C37.3,33.6,37.2,33.2,37,33z"/>
	<path d="M3.7,30.4h30c0.7,0,1.4-0.6,1.4-1.4V7.9c0-0.7-0.6-1.4-1.4-1.4h-6c-0.7,0-1.4,0.6-1.4,1.4v5.3h-3.3V3.9
		c0-0.7-0.6-1.4-1.4-1.4h-6c-0.7,0-1.4,0.6-1.4,1.4v15.7h-3.3v-6.8c0-0.7-0.6-1.4-1.4-1.4h-6c-0.7,0-1.4,0.6-1.4,1.4v16.3
		C2.4,29.8,3,30.4,3.7,30.4z M5.1,27.7V14.1h3.3v13.6H5.1z M11.1,27.7v-5.5h3.3l0,5.5H11.1z M17.1,27.7V5.2h3.3l0,22.5H17.1z
		 M23.1,27.7V15.9h3.3l0,11.8H23.1z M29.1,27.7V9.2h3.3v18.5H29.1z"/>
</g>
</svg>
