<svg id="cloud-upload" xmlns="http://www.w3.org/2000/svg" xmlns:xlink="http://www.w3.org/1999/xlink" width="160" height="131.25" viewBox="0 0 160 131.25">
  <defs>
    <linearGradient id="linear-gradient" x1="0.5" x2="0.5" y2="1" gradientUnits="objectBoundingBox">
      <stop offset="0" stop-color="#f36f47" id="color11"/>
      <stop offset="1" stop-color="#ee1d50" id="color12"/>
    </linearGradient>
    <linearGradient id="linear-gradient-2" x1="0.5" y1="0.195" x2="0.656" y2="1" gradientUnits="objectBoundingBox">
      <stop offset="0" stop-color="#f5a341"/>
      <stop offset="1" stop-color="#ee1d50"/>
    </linearGradient>
  </defs>
  <g id="Group_745" data-name="Group 745" transform="translate(56.563 56.38)">
    <g id="Group_744" data-name="Group 744">
      <path id="Path_1437" data-name="Path 1437" d="M227.09,256.5l-18.75-28.125a4.865,4.865,0,0,0-7.8,0L181.789,256.5a4.687,4.687,0,0,0,3.9,7.288h4.688V296.6a4.685,4.685,0,0,0,4.688,4.688h18.75A4.685,4.685,0,0,0,218.5,296.6V263.786h4.688a4.687,4.687,0,0,0,3.9-7.288Z" transform="translate(-181.003 -226.416)" fill="url(#linear-gradient)"/>
    </g>
  </g>
  <g id="Group_747" data-name="Group 747">
    <g id="Group_746" data-name="Group 746">
      <path id="Path_1438" data-name="Path 1438" d="M136.08,86.449a23.188,23.188,0,0,0-6.692-14.833c-6.058-6.058-15.177-7.869-23.187-5.633A41.778,41.778,0,0,0,70.625,46,42.215,42.215,0,0,0,28.648,84.777C12.246,88.92,0,103.857,0,121c0,20.677,17.135,37.5,37.813,37.5h18.75V148.324a14.07,14.07,0,0,1-7.018-21.057L68.3,99.137a14.232,14.232,0,0,1,23.4,0l18.75,28.125a14.069,14.069,0,0,1-7.013,21.062V158.5h18.75C142.865,158.5,160,141.677,160,121,160,105.53,150.3,92.111,136.08,86.449Z" transform="translate(0 -46)" fill="url(#linear-gradient-2)"/>
    </g>
  </g>
</svg>
