<?xml version="1.0" encoding="utf-8"?>
<!-- Generator: Adobe Illustrator 23.0.5, SVG Export Plug-In . SVG Version: 6.00 Build 0)  -->
<svg version="1.1" id="Layer_1" xmlns="http://www.w3.org/2000/svg" xmlns:xlink="http://www.w3.org/1999/xlink" x="0px" y="0px"
	 viewBox="0 0 27.4 27.4" style="enable-background:new 0 0 27.4 27.4;" xml:space="preserve">
<path d="M22.6,12c1-0.9,1.7-2,2-3.4c0.3-1.6,0-3.3-0.9-4.6c-1.9-2.9-5.7-3.7-8.5-1.8c-0.6,0.4-1.1,0.9-1.5,1.4
	c-1.9-2.4-5.3-3.2-8-1.6C4.3,2.9,3.3,4.2,2.8,5.8S2.6,9,3.5,10.5c0.3,0.6,0.8,1.1,1.3,1.6c-2.8,1.5-4.6,4.4-4.6,7.6v2.9
	c0,1.8,1.5,3.3,3.3,3.3h20.4c1.8,0,3.3-1.5,3.3-3.3v-2.9C27.2,16.4,25.4,13.5,22.6,12z M15.6,14.4c2.7-1.5,6.2-0.8,8,1.8
	c0.7,1,1.1,2.2,1.1,3.5l0,2.9c0,0.4-0.3,0.8-0.8,0.8h-6.6c0.1-0.3,0.1-0.5,0.1-0.8v-2.9C17.4,17.7,16.8,15.9,15.6,14.4z M8.8,13.6
	c3.4,0,6.1,2.7,6.1,6.1v2.9c0,0.4-0.3,0.8-0.8,0.8H3.5c-0.4,0-0.8-0.3-0.8-0.8v-2.9C2.7,16.3,5.4,13.6,8.8,13.6z M5.2,7.4
	c0-2,1.6-3.6,3.6-3.6s3.6,1.6,3.6,3.6c0,2-1.6,3.6-3.6,3.6C6.8,11,5.2,9.4,5.2,7.4z M18.6,11c-2,0-3.6-1.6-3.6-3.6
	c0-2,1.6-3.6,3.6-3.6c2,0,3.6,1.6,3.6,3.6C22.2,9.4,20.6,11,18.6,11z M13.7,12.6c-0.3-0.2-0.6-0.4-0.9-0.5c0.3-0.3,0.6-0.6,0.9-0.9
	c0.3,0.3,0.5,0.6,0.9,0.9C14.3,12.2,14,12.4,13.7,12.6z"/>
</svg>
