<svg xmlns="http://www.w3.org/2000/svg" xmlns:xlink="http://www.w3.org/1999/xlink" width="27" height="27" viewBox="0 0 27 27">
  <defs>
    <linearGradient id="linear-gradient" x1="0.222" x2="0.815" y2="1" gradientUnits="objectBoundingBox">
      <stop offset="0" stop-color="#f5a341"/>
      <stop offset="1" stop-color="#ee1d50"/>
    </linearGradient>
    <clipPath id="clip-Artboard_53">
      <rect width="27" height="27"/>
    </clipPath>
  </defs>
  <g id="Artboard_53" data-name="Artboard – 53" clip-path="url(#clip-Artboard_53)">
    <path id="conditionRoom" d="M22.6,12a6.213,6.213,0,0,0,2-3.4A6.16,6.16,0,0,0,23.7,4a6.069,6.069,0,0,0-8.5-1.8,6.73,6.73,0,0,0-1.5,1.4A6.2,6.2,0,0,0,5.7,2,6.894,6.894,0,0,0,2.8,5.8a5.639,5.639,0,0,0,.7,4.7,6.529,6.529,0,0,0,1.3,1.6A8.645,8.645,0,0,0,.2,19.7v2.9a3.329,3.329,0,0,0,3.3,3.3H23.9a3.329,3.329,0,0,0,3.3-3.3V19.7A8.684,8.684,0,0,0,22.6,12Zm-7,2.4a6.127,6.127,0,0,1,8,1.8,6.062,6.062,0,0,1,1.1,3.5v2.9a.789.789,0,0,1-.8.8H17.3a2.2,2.2,0,0,0,.1-.8V19.7A8.294,8.294,0,0,0,15.6,14.4Zm-6.8-.8a6.061,6.061,0,0,1,6.1,6.1v2.9a.789.789,0,0,1-.8.8H3.5a.789.789,0,0,1-.8-.8V19.7A6.061,6.061,0,0,1,8.8,13.6ZM5.2,7.4A3.6,3.6,0,1,1,8.8,11,3.585,3.585,0,0,1,5.2,7.4ZM18.6,11a3.6,3.6,0,1,1,3.6-3.6A3.585,3.585,0,0,1,18.6,11Zm-4.9,1.6a4.053,4.053,0,0,0-.9-.5l.9-.9a7.637,7.637,0,0,0,.9.9A4.053,4.053,0,0,0,13.7,12.6Z" transform="translate(-0.199 -0.168)" fill="url(#linear-gradient)"/>
  </g>
</svg>
