<?xml version="1.0" encoding="utf-8"?>
<!-- Generator: Adobe Illustrator 23.0.5, SVG Export Plug-In . SVG Version: 6.00 Build 0)  -->
<svg version="1.1" id="Layer_1" xmlns="http://www.w3.org/2000/svg" xmlns:xlink="http://www.w3.org/1999/xlink" x="0px" y="0px"
	 viewBox="0 0 36.5 36.5" style="enable-background:new 0 0 36.5 36.5;" xml:space="preserve">
<style type="text/css">
	.st0{fill:#222222;}
</style>
<path class="st0" d="M31.1,5.7H19.9L17.2,3c-0.3-0.3-0.7-0.5-1.2-0.5H5.1C2.6,2.6,0.5,4.7,0.5,7.3v20.6c0,2.6,2.1,4.7,4.6,4.8h26
	c0,0,0,0,0,0c1.3,0,2.5-0.5,3.3-1.4c0.9-0.9,1.4-2.1,1.4-3.4V10.5C35.8,7.8,33.7,5.8,31.1,5.7z M3.8,7.3c0-0.7,0.5-1.4,1.3-1.4
	L15.4,6l2.5,2.5c0.1,0.2,0.3,0.3,0.5,0.4H5.1C4.7,8.9,4.2,9,3.8,9.1L3.8,7.3L3.8,7.3z M3.8,13.7c0-0.8,0.6-1.4,1.3-1.4h26
	c0.8,0,1.4,0.7,1.5,1.5v14.2c0,0.8-0.7,1.4-1.5,1.5l-25.9,0c-0.8-0.1-1.4-0.7-1.4-1.5V13.7z"/>
</svg>
