<?xml version="1.0" encoding="utf-8"?>
<!-- Generator: Adobe Illustrator 23.0.5, SVG Export Plug-In . SVG Version: 6.00 Build 0)  -->
<svg version="1.1" id="Layer_1" xmlns="http://www.w3.org/2000/svg" xmlns:xlink="http://www.w3.org/1999/xlink" x="0px" y="0px"
	 viewBox="0 0 35.5 35.5" style="enable-background:new 0 0 35.5 35.5;" xml:space="preserve">
<style type="text/css">
	.st0{fill:#BCBCBC;}
</style>
<g>
	<path class="st0" d="M16.5,26.2c0,0,0.1,0.1,0.2,0.2l0.1,0.1l0.3-0.4v0l-0.2,0.5l0.8,0.3c0.1,0,0.1,0,0.2,0c0.1,0,0.1,0,0.2,0
		c0.1,0,0.1,0,0.2,0l0.7-0.3c0,0,0.1,0,0.2-0.1c0.1,0,0.1-0.1,0.1-0.1l7-7c0.7-0.7,0.7-1.9,0-2.7c-0.7-0.7-2-0.7-2.7,0l-3.8,3.8V2.4
		c0-1-0.9-1.9-1.9-1.9s-1.9,0.9-1.9,1.9v17.9l-3.8-3.8c-0.7-0.7-2-0.7-2.7,0c-0.7,0.7-0.7,1.9,0,2.7L16.5,26.2z M17.2,26.1
		L17.2,26.1L17.2,26.1L17.2,26.1z M17.4,26.2C17.4,26.2,17.4,26.2,17.4,26.2L17.4,26.2L17.4,26.2L17.4,26.2z M17.6,26.2L17.6,26.2
		L17.6,26.2L17.6,26.2z"/>
	<path class="st0" d="M34.6,24.9c-0.4-0.4-0.8-0.6-1.3-0.6h0c-1,0-1.9,0.9-1.9,1.9v5.1H4.3v-5.1c0-1-0.9-1.9-1.9-1.9
		s-1.9,0.9-1.9,1.9v7c0,1,0.9,1.9,1.9,1.9h30.9c1,0,1.9-0.9,1.9-1.9v-7C35.2,25.7,35,25.3,34.6,24.9z M33.3,24.8L33.3,24.8
		L33.3,24.8L33.3,24.8z"/>
</g>
</svg>
