<?xml version="1.0" encoding="utf-8"?>
<!-- Generator: Adobe Illustrator 23.0.5, SVG Export Plug-In . SVG Version: 6.00 Build 0)  -->
<svg version="1.1" id="Layer_1" xmlns="http://www.w3.org/2000/svg" xmlns:xlink="http://www.w3.org/1999/xlink" x="0px" y="0px"
	 viewBox="0 0 37.5 37.5" style="enable-background:new 0 0 37.5 37.5;" xml:space="preserve">
<style type="text/css">
	.st0{fill:#BCBCBC;}
</style>
<path class="st0" d="M18.4,0.5L18.4,0.5C8.2,0.5-0.1,8.8,0,19c0,4.9,1.9,9.6,5.4,13.1c3.5,3.5,8.1,5.4,13.1,5.4
	c1.1,0,1.9-0.8,1.9-1.9c0-1.1-0.9-1.9-1.9-1.9c-8.1,0-14.7-6.6-14.7-14.7c0-8.1,6.6-14.7,14.7-14.7c8.1,0,14.7,6.6,14.7,14.7l0,0.1
	c0,5-4.1,9-9,9H24c-1.4,0-2.7-0.8-3.3-2.1c3.1-1,5.2-3.8,5.2-7.1v-5.5c0-1.1-0.9-1.9-1.9-1.9h-0.9V7.9c0-1.1-0.9-1.9-1.9-1.9
	s-1.9,0.9-1.9,1.9v3.6h-1.7V7.9c0-1.1-0.9-1.9-1.9-1.9c-1.1,0-1.9,0.9-1.9,1.9v3.6H13c-1.1,0-1.9,0.9-1.9,1.9V19
	c0,3.5,2.4,6.4,5.7,7.2c0.8,3.3,3.8,5.7,7.2,5.7h0.1C31.2,32,37,26.2,37,19.1C37,8.9,28.7,0.5,18.4,0.5z M22.1,15.4V19
	c0,2-1.6,3.6-3.6,3.6S14.9,21,14.9,19v-3.6H22.1z"/>
</svg>
