<svg xmlns="http://www.w3.org/2000/svg" xmlns:xlink="http://www.w3.org/1999/xlink" width="30.4" height="30.4" viewBox="0 0 30.4 30.4">
  <defs>
    <clipPath id="clip-Artboard_60">
      <rect width="30.4" height="30.4"/>
    </clipPath>
  </defs>
  <g id="Artboard_60" data-name="Artboard – 60" clip-path="url(#clip-Artboard_60)">
    <path id="load" d="M30.3,4.735v6.688a1.184,1.184,0,0,1-2.367,0V4.735a2.37,2.37,0,0,0-2.367-2.367H4.735A2.37,2.37,0,0,0,2.367,4.735V23.141a2.37,2.37,0,0,0,2.367,2.367H15.743a1.184,1.184,0,1,1,0,2.367H4.735A4.74,4.74,0,0,1,0,23.141V4.735A4.74,4.74,0,0,1,4.735,0H25.567A4.74,4.74,0,0,1,30.3,4.735ZM5.741,20.773a1.184,1.184,0,1,0,1.184,1.184A1.184,1.184,0,0,0,5.741,20.773Zm4.735,0a1.184,1.184,0,1,0,1.184,1.184A1.184,1.184,0,0,0,10.476,20.773Zm4.735,0a1.184,1.184,0,1,0,1.184,1.184A1.184,1.184,0,0,0,15.21,20.773ZM6.924,5.918A1.184,1.184,0,1,0,5.741,7.1,1.184,1.184,0,0,0,6.924,5.918Zm4.735,0A1.184,1.184,0,1,0,10.476,7.1,1.184,1.184,0,0,0,11.659,5.918Zm4.735,0A1.184,1.184,0,1,0,15.21,7.1,1.184,1.184,0,0,0,16.394,5.918Zm4.735,0A1.184,1.184,0,1,0,19.945,7.1,1.184,1.184,0,0,0,21.129,5.918Zm4.735,0A1.184,1.184,0,1,0,24.68,7.1,1.184,1.184,0,0,0,25.863,5.918ZM30.3,16.966v.765c0,1.575-1.582,2.886-2.736,3.843-.14.116-.274.227-.39.326.109.092.232.195.361.3,1.167.967,2.765,2.29,2.765,3.864v.765A2.173,2.173,0,0,1,28.131,29H21.465a2.173,2.173,0,0,1-2.171-2.17v-.765c0-1.6,1.642-2.98,2.841-3.99l.247-.209c-.107-.091-.226-.19-.351-.294-1.155-.957-2.736-2.268-2.736-3.843v-.765a2.173,2.173,0,0,1,2.171-2.17h6.666a2.173,2.173,0,0,1,2.171,2.17Zm-2.367.2H21.661v.567s.011.231.5.766a13.862,13.862,0,0,0,1.383,1.254c.175.145.34.282.489.411a2.313,2.313,0,0,1,.768,1.7,2.239,2.239,0,0,1-.735,1.678c-.123.107-.259.222-.4.343a15.362,15.362,0,0,0-1.441,1.324c-.541.6-.558.853-.558.856v.566h6.273v-.567s-.016-.237-.516-.782a14.311,14.311,0,0,0-1.392-1.259c-.177-.147-.345-.286-.495-.416a2.369,2.369,0,0,1-.734-1.744,2.314,2.314,0,0,1,.768-1.7c.149-.129.314-.266.489-.411A13.866,13.866,0,0,0,27.438,18.5c.485-.535.5-.764.5-.766Zm0,0" transform="translate(0 0.334)"/>
  </g>
</svg>
