<?xml version="1.0" encoding="utf-8"?>
<!-- Generator: Adobe Illustrator 24.0.0, SVG Export Plug-In . SVG Version: 6.00 Build 0)  -->
<svg version="1.1" id="Layer_1" xmlns="http://www.w3.org/2000/svg" xmlns:xlink="http://www.w3.org/1999/xlink" x="0px" y="0px"
	 viewBox="0 0 21.8 21.5" style="enable-background:new 0 0 21.8 21.5;" xml:space="preserve">
<style type="text/css">
	.st0{fill:#BCBCBC;}
</style>
<g>
	<path class="st0" d="M19.3,12.6L19.3,12.6c-0.7,0-1.3,0.6-1.3,1.3v4.4c0,0.4-0.3,0.8-0.8,0.8H3.3c-0.4,0-0.8-0.3-0.8-0.8v-13
		c0-0.4,0.3-0.8,0.8-0.8h4.4c0.7,0,1.3-0.6,1.3-1.3S8.4,2,7.7,2H3.2C1.5,2,0,3.4,0,5.2v13c0,1.8,1.5,3.2,3.3,3.2h14.1
		c1.8,0,3.2-1.5,3.2-3.3v-4.4c0-0.3-0.1-0.6-0.4-0.9C20,12.7,19.6,12.6,19.3,12.6z"/>
	<path class="st0" d="M20.7,1.5l-0.6-0.6c-1.1-1.1-3.1-1.1-4.2,0L7,9.8c-0.2,0.2-0.3,0.3-0.3,0.5l-1.2,4.2c-0.2,0.7,0.2,1.4,0.9,1.5
		c0.1,0,0.2,0,0.3,0s0.2,0,0.3,0l4.2-1.2c0.2-0.1,0.4-0.2,0.5-0.3l8.9-8.9C21.9,4.5,21.9,2.6,20.7,1.5z M19,3.2
		c0.2,0.2,0.2,0.5,0,0.7v0l-1.3-1.3l0,0c0.2-0.2,0.5-0.2,0.7,0L19,3.2z M8.5,13.1L8.5,13.1L8.5,13.1L8.5,13.1z M15.9,4.4l1.3,1.3
		L10.9,12l-1.3-1.3L15.9,4.4z"/>
</g>
</svg>
