<svg xmlns="http://www.w3.org/2000/svg" xmlns:xlink="http://www.w3.org/1999/xlink" width="32.801" height="32.8" viewBox="0 0 32.801 32.8">
  <defs>
    <clipPath id="clip-Artboard_38">
      <rect width="32.8" height="32.8"/>
    </clipPath>
  </defs>
  <g id="Artboard_38" data-name="Artboard – 38" clip-path="url(#clip-Artboard_38)">
    <g id="edit" transform="translate(1 0.739)">
      <path id="Path_1033" data-name="Path 1033" d="M28.447,55.43a.768.768,0,0,0-.768.768v6.816a2.305,2.305,0,0,1-2.3,2.3H3.838a2.305,2.305,0,0,1-2.3-2.3v-20a2.306,2.306,0,0,1,2.3-2.3h6.816a.768.768,0,0,0,0-1.535H3.838A3.842,3.842,0,0,0,0,43.01v20a3.842,3.842,0,0,0,3.838,3.838H25.376a3.842,3.842,0,0,0,3.838-3.838V56.2a.768.768,0,0,0-.768-.768Zm0,0" transform="translate(0 -35.924)" fill="#222" stroke="#5d5d5d" stroke-width="2"/>
      <path id="Path_1034" data-name="Path 1034" d="M128.8,1.273a3.454,3.454,0,0,0-4.885,0L110.216,14.967a.767.767,0,0,0-.2.338l-1.8,6.5a.767.767,0,0,0,.945.945l6.5-1.8a.767.767,0,0,0,.338-.2L129.7,7.058a3.458,3.458,0,0,0,0-4.885ZM111.889,15.466,123.1,4.258l3.615,3.615L115.5,19.081Zm-.722,1.449,2.888,2.888L110.06,20.91ZM128.611,5.973l-.814.814-3.615-3.615L125,2.358a1.919,1.919,0,0,1,2.714,0l.9.9A1.922,1.922,0,0,1,128.611,5.973Zm0,0" transform="translate(-99.885 0)" fill="#222" stroke="#5d5d5d" stroke-width="2"/>
    </g>
  </g>
</svg>
