<svg xmlns="http://www.w3.org/2000/svg" width="36.172" height="36" viewBox="0 0 36.172 36">
  <g id="edit-gray" transform="translate(1 0.739)">
    <path id="Path_1033" data-name="Path 1033" d="M31.335,56.969a.843.843,0,0,0-.846.84v7.46a2.531,2.531,0,0,1-2.537,2.521H4.228a2.531,2.531,0,0,1-2.537-2.521v-21.9a2.532,2.532,0,0,1,2.537-2.521h7.508a.84.84,0,1,0,0-1.68H4.228A4.219,4.219,0,0,0,0,43.373v21.9a4.219,4.219,0,0,0,4.228,4.2H27.953a4.219,4.219,0,0,0,4.228-4.2V57.809a.843.843,0,0,0-.846-.84Zm0,0" transform="translate(0 -35.21)" fill="#bcbcbc" stroke="#bcbcbc" stroke-width="2"/>
    <path id="Path_1034" data-name="Path 1034" d="M133.723,1.514a4.28,4.28,0,0,0-6.053,0L110.7,18.484a.951.951,0,0,0-.244.419l-2.232,8.056a.951.951,0,0,0,1.17,1.171l8.056-2.232a.951.951,0,0,0,.419-.244L134.84,8.684a4.285,4.285,0,0,0,0-6.053ZM112.773,19.1,126.661,5.214l4.479,4.479L117.252,23.581Zm-.895,1.8,3.578,3.579-4.95,1.371ZM133.495,7.339l-1.009,1.009-4.479-4.479,1.009-1.009a2.378,2.378,0,0,1,3.363,0l1.117,1.116A2.381,2.381,0,0,1,133.495,7.339Zm0,0" transform="translate(-101.92 0)" fill="#bcbcbc" stroke="#bcbcbc" stroke-width="2"/>
  </g>
</svg>
