<?xml version="1.0" encoding="utf-8"?>
<!-- Generator: Adobe Illustrator 23.0.5, SVG Export Plug-In . SVG Version: 6.00 Build 0)  -->
<svg version="1.1" id="Layer_1" xmlns="http://www.w3.org/2000/svg" xmlns:xlink="http://www.w3.org/1999/xlink" x="0px" y="0px"
	 viewBox="0 0 37.5 37.5" style="enable-background:new 0 0 37.5 37.5;" xml:space="preserve">
<style type="text/css">
	.st0{fill:#BCBCBC;}
</style>
<path class="st0" d="M32.2,0.5C32.2,0.5,32.2,0.5,32.2,0.5H9.9c-0.9,0-1.6,0.7-1.6,1.6v2.8H5.6C4.7,4.9,4,5.6,4,6.4v28.5
	c0,0.9,0.7,1.6,1.6,1.6h22.3c0,0,0,0,0,0c0.4,0,0.8-0.2,1.1-0.5c0.3-0.3,0.5-0.7,0.5-1.1v-2.8h2.8c0.9,0,1.6-0.7,1.6-1.6V2.1
	C33.7,1.2,33,0.5,32.2,0.5z M23.2,11.1v-0.9l0.9,0.9H23.2z M29.4,12.5c0-0.4-0.2-0.7-0.4-0.9l-6.2-6.2c-0.3-0.3-0.6-0.4-0.9-0.4
	l-10.3,0V3.6h19.1V29h-1.2V12.6L29.4,12.5z M20.5,13.7c0.3,0.3,0.7,0.5,1.1,0.5h4.6l0,19.2H7.1V8h13v4.6
	C20.1,13,20.2,13.4,20.5,13.7z"/>
</svg>
