<?xml version="1.0" encoding="utf-8"?>
<!-- Generator: Adobe Illustrator 23.0.5, SVG Export Plug-In . SVG Version: 6.00 Build 0)  -->
<svg version="1.1" id="Layer_1" xmlns="http://www.w3.org/2000/svg" xmlns:xlink="http://www.w3.org/1999/xlink" x="0px" y="0px"
	 viewBox="0 0 41.5 41.5" style="enable-background:new 0 0 41.5 41.5;" xml:space="preserve">
<style type="text/css">
	.st0{fill:#BCBCBC;}
</style>
<g>
	<path class="st0" d="M41.2,26.8c-2-2.8-5.9-3.5-8.8-1.6l-3.8,2.5c-0.8-0.8-1.8-1.3-2.9-1.3h-3.8c-0.3,0-0.4-0.1-0.7-0.4
		c-0.1-0.1-0.2-0.2-0.3-0.3c-3.3-2.9-8.2-2.9-11.5,0l-0.7,0.7H2.2c-0.9,0-1.7,0.7-1.7,1.7v9.4c0,0.4,0.2,0.9,0.5,1.2
		c0.3,0.3,0.7,0.5,1.2,0.5c0,0,0,0,0,0l6.9,0l14,2.4c0.1,0,0.2,0,0.3,0c0.3,0,0.7-0.1,1-0.3l16.5-12.1
		C41.5,28.5,41.7,27.5,41.2,26.8z M26.2,30.8C26.1,31,25.9,31,25.7,31h-9.4c-0.9,0-1.7,0.8-1.7,1.7c0,0.9,0.8,1.7,1.7,1.7h9.4
		c2,0,3.7-1.5,4-3.4l4.6-3c0.9-0.6,1.9-0.7,2.9-0.3L22.9,38.1c-5.6-1-8.9-1.5-10.8-1.9c-2.5-0.4-2.7-0.5-2.8-0.5c0,0,0,0,0,0H3.8v-6
		h5.4c0.4,0,0.8-0.1,1.1-0.4l1.2-1.1c2-1.8,5.1-1.8,7,0c0.8,0.9,2,1.5,3.2,1.5h3.8c0.2,0,0.4,0.1,0.5,0.2c0.1,0.1,0.2,0.3,0.2,0.5
		C26.4,30.5,26.3,30.7,26.2,30.8z"/>
	<path class="st0" d="M21,22.7c6.1,0,11-5,11-11v0c0-6.1-5-11-11-11c-6.1,0-11,5-11,11S14.9,22.7,21,22.7z M22.7,19.1V18
		c0.9-0.4,1.5-1.1,1.9-1.9c0.5-1,0.5-2.1,0.2-3.1c-0.2-0.7-0.6-1.2-1.2-1.7c0.3-0.1,0.6-0.2,0.9-0.5c0.3-0.3,0.5-0.7,0.5-1.2
		c0-1.6-0.9-3-2.3-3.6V4c3.5,0.8,6,4,6,7.6v0C28.7,15.2,26.1,18.4,22.7,19.1z M21,10.3C21,10.3,21,10.3,21,10.3
		c-0.4,0-0.7-0.3-0.7-0.7S20.6,9,21,9s0.7,0.3,0.7,0.7c0,0.3,0.1,0.5,0.2,0.8C21.6,10.3,21.3,10.3,21,10.3z M21.7,14.3
		c0,0.4-0.3,0.7-0.7,0.7s-0.7-0.3-0.7-0.7c0-0.3-0.1-0.5-0.2-0.8c0.3,0.1,0.6,0.1,0.9,0.1c0,0,0,0,0,0
		C21.4,13.6,21.7,13.9,21.7,14.3z M19.3,4V6c-0.9,0.4-1.5,1.1-2,1.9c-0.5,1-0.5,2.1-0.2,3.1c0.2,0.7,0.6,1.3,1.2,1.7
		c-0.8,0.1-1.4,0.8-1.4,1.6c0,1.6,0.9,3,2.4,3.7v1.2c-3.5-0.8-6-3.9-6-7.5v0C13.3,8,15.8,4.8,19.3,4z"/>
</g>
</svg>
