<?xml version="1.0" encoding="utf-8"?>
<!-- Generator: Adobe Illustrator 23.0.5, SVG Export Plug-In . SVG Version: 6.00 Build 0)  -->
<svg version="1.1" id="Layer_1" xmlns="http://www.w3.org/2000/svg" xmlns:xlink="http://www.w3.org/1999/xlink" x="0px" y="0px"
	 viewBox="0 0 40 40" style="enable-background:new 0 0 40 40;" xml:space="preserve">
<style type="text/css">
	.st0{fill:none;}
	.st1{fill:#FFFFFF;}
</style>
<g>
	<g id="Artboard_3">
		<g id="Group_595" transform="translate(-182 -385)">
			<g id="Group_564" transform="translate(184 387)">
				<g id="Group_563" transform="translate(0 0)">
					<g id="Path_1074" transform="translate(0 0)">
						<g>
							<path class="st0" d="M18.4-0.2c10,0,18.2,8.1,18.2,18.2s-8.1,18.2-18.2,18.2S0.2,28,0.2,18c0,0,0,0,0,0
								C0.2,8,8.3-0.2,18.4-0.2z"/>
						</g>
						<g>
							<path class="st1" d="M18.4,4.3c-3.7,0-7.1,1.4-9.7,4s-4,6-4,9.7s1.4,7.1,4,9.7s6,4,9.7,4s7.1-1.4,9.7-4s4-6,4-9.7
								s-1.4-7.1-4-9.7S22,4.3,18.4,4.3 M18.4-0.2c10,0,18.2,8.1,18.2,18.2s-8.1,18.2-18.2,18.2S0.2,28,0.2,18S8.3-0.2,18.4-0.2z"/>
						</g>
					</g>
					<g id="Line_90">
						<path class="st1" d="M1.1,37.1c-0.6,0-1.2-0.2-1.6-0.7c-0.9-0.9-0.9-2.3,0-3.2L33.3-0.5c0.9-0.9,2.3-0.9,3.2,0
							c0.9,0.9,0.9,2.3,0,3.2L2.7,36.5C2.3,36.9,1.7,37.1,1.1,37.1z"/>
					</g>
				</g>
			</g>
		</g>
	</g>
</g>
</svg>
