<svg xmlns="http://www.w3.org/2000/svg" xmlns:xlink="http://www.w3.org/1999/xlink" width="37" height="37" viewBox="0 0 37 37">
  <defs>
    <clipPath id="clip-Artboard_58">
      <rect width="37" height="37"/>
    </clipPath>
  </defs>
  <g id="Artboard_58" data-name="Artboard – 58" clip-path="url(#clip-Artboard_58)">
    <g id="excel" transform="translate(0 -15.01)">
      <g id="Group_499" data-name="Group 499" transform="translate(0 16.01)">
        <g id="Group_498" data-name="Group 498">
          <path id="Path_1052" data-name="Path 1052" d="M20.262,16.273a1.156,1.156,0,0,0-.944-.244L.937,19.475A1.146,1.146,0,0,0,0,20.6V45.877A1.147,1.147,0,0,0,.937,47l18.38,3.446a1.1,1.1,0,0,0,.211.021,1.149,1.149,0,0,0,1.149-1.149V17.157A1.146,1.146,0,0,0,20.262,16.273ZM18.38,47.937,2.3,44.923V21.557L18.38,18.543Z" transform="translate(0 -16.01)"/>
        </g>
      </g>
      <g id="Group_501" data-name="Group 501" transform="translate(18.38 20.604)">
        <g id="Group_500" data-name="Group 500">
          <path id="Path_1053" data-name="Path 1053" d="M273.232,79.99H257.149a1.149,1.149,0,1,0,0,2.3h14.934v20.678H257.149a1.149,1.149,0,1,0,0,2.3h16.083a1.149,1.149,0,0,0,1.149-1.149V81.139A1.149,1.149,0,0,0,273.232,79.99Z" transform="translate(-256 -79.99)"/>
        </g>
      </g>
      <g id="Group_503" data-name="Group 503" transform="translate(18.38 25.199)">
        <g id="Group_502" data-name="Group 502">
          <path id="Path_1054" data-name="Path 1054" d="M261.744,143.99h-4.6a1.149,1.149,0,1,0,0,2.3h4.6a1.149,1.149,0,1,0,0-2.3Z" transform="translate(-256 -143.99)"/>
        </g>
      </g>
      <g id="Group_505" data-name="Group 505" transform="translate(18.38 29.794)">
        <g id="Group_504" data-name="Group 504">
          <path id="Path_1055" data-name="Path 1055" d="M261.744,207.99h-4.6a1.149,1.149,0,1,0,0,2.3h4.6a1.149,1.149,0,1,0,0-2.3Z" transform="translate(-256 -207.99)"/>
        </g>
      </g>
      <g id="Group_507" data-name="Group 507" transform="translate(18.38 34.389)">
        <g id="Group_506" data-name="Group 506">
          <path id="Path_1056" data-name="Path 1056" d="M261.744,271.99h-4.6a1.149,1.149,0,0,0,0,2.3h4.6a1.149,1.149,0,0,0,0-2.3Z" transform="translate(-256 -271.99)"/>
        </g>
      </g>
      <g id="Group_509" data-name="Group 509" transform="translate(18.38 38.984)">
        <g id="Group_508" data-name="Group 508">
          <path id="Path_1057" data-name="Path 1057" d="M261.744,335.99h-4.6a1.149,1.149,0,1,0,0,2.3h4.6a1.149,1.149,0,1,0,0-2.3Z" transform="translate(-256 -335.99)"/>
        </g>
      </g>
      <g id="Group_511" data-name="Group 511" transform="translate(27.571 25.199)">
        <g id="Group_510" data-name="Group 510">
          <path id="Path_1058" data-name="Path 1058" d="M387.446,143.99h-2.3a1.149,1.149,0,1,0,0,2.3h2.3a1.149,1.149,0,0,0,0-2.3Z" transform="translate(-384 -143.99)"/>
        </g>
      </g>
      <g id="Group_513" data-name="Group 513" transform="translate(27.571 29.794)">
        <g id="Group_512" data-name="Group 512">
          <path id="Path_1059" data-name="Path 1059" d="M387.446,207.99h-2.3a1.149,1.149,0,1,0,0,2.3h2.3a1.149,1.149,0,0,0,0-2.3Z" transform="translate(-384 -207.99)"/>
        </g>
      </g>
      <g id="Group_515" data-name="Group 515" transform="translate(27.571 34.389)">
        <g id="Group_514" data-name="Group 514">
          <path id="Path_1060" data-name="Path 1060" d="M387.446,271.99h-2.3a1.149,1.149,0,0,0,0,2.3h2.3a1.149,1.149,0,0,0,0-2.3Z" transform="translate(-384 -271.99)"/>
        </g>
      </g>
      <g id="Group_517" data-name="Group 517" transform="translate(27.571 38.984)">
        <g id="Group_516" data-name="Group 516">
          <path id="Path_1061" data-name="Path 1061" d="M387.446,335.99h-2.3a1.149,1.149,0,1,0,0,2.3h2.3a1.149,1.149,0,0,0,0-2.3Z" transform="translate(-384 -335.99)"/>
        </g>
      </g>
      <g id="Group_519" data-name="Group 519" transform="translate(5.744 27.496)">
        <g id="Group_518" data-name="Group 518">
          <path id="Path_1062" data-name="Path 1062" d="M90.061,185.567l-8.041-9.19a1.149,1.149,0,0,0-1.73,1.512l8.041,9.19a1.149,1.149,0,0,0,1.73-1.512Z" transform="translate(-80.004 -175.984)"/>
        </g>
      </g>
      <g id="Group_521" data-name="Group 521" transform="translate(5.744 26.348)">
        <g id="Group_520" data-name="Group 520">
          <path id="Path_1063" data-name="Path 1063" d="M89.9,160.235a1.149,1.149,0,0,0-1.613.2l-8.041,10.339a1.149,1.149,0,0,0,1.813,1.413l8.041-10.339A1.148,1.148,0,0,0,89.9,160.235Z" transform="translate(-79.999 -159.992)"/>
        </g>
      </g>
    </g>
  </g>
</svg>
