<svg xmlns="http://www.w3.org/2000/svg" xmlns:xlink="http://www.w3.org/1999/xlink" width="42" height="42" viewBox="0 0 42 42">
  <defs>
    <clipPath id="clip-Artboard_24">
      <rect width="42" height="42"/>
    </clipPath>
  </defs>
  <g id="Artboard_24" data-name="Artboard – 24" clip-path="url(#clip-Artboard_24)">
    <g id="flag" transform="translate(-55.381 22.943) rotate(-13)">
      <g id="Group_329" data-name="Group 329" transform="translate(62.202 -5.547)">
        <path id="Path_1010" data-name="Path 1010" d="M92.914,3.529a12.681,12.681,0,0,0-2.178-.947A15.6,15.6,0,0,0,78.1,3.494a12.365,12.365,0,0,1-10.032.71c-.287-.1-.543-.2-.764-.286V1.652a1.652,1.652,0,0,0-3.3,0V37.994a1.652,1.652,0,1,0,3.3,0V23.98a15.569,15.569,0,0,0,12.331-1.011,12.365,12.365,0,0,1,10.032-.71,9.635,9.635,0,0,1,1.585.675,1.652,1.652,0,0,0,2.483-1.428V4.957A1.652,1.652,0,0,0,92.914,3.529Zm-2.483,15.5A15.569,15.569,0,0,0,78.1,20.043a12.365,12.365,0,0,1-10.032.71c-.287-.1-.543-.2-.764-.286V7.431A15.569,15.569,0,0,0,79.635,6.419a12.36,12.36,0,0,1,10.032-.711c.287.1.543.2.764.286V19.031Z" transform="translate(-64)" fill="#bcbcbc"/>
      </g>
    </g>
  </g>
</svg>
