<?xml version="1.0" encoding="utf-8"?>
<!-- Generator: Adobe Illustrator 23.0.5, SVG Export Plug-In . SVG Version: 6.00 Build 0)  -->
<svg version="1.1" id="Layer_1" xmlns="http://www.w3.org/2000/svg" xmlns:xlink="http://www.w3.org/1999/xlink" x="0px" y="0px"
	 viewBox="0 0 40 40" style="enable-background:new 0 0 40 40;" xml:space="preserve">
<style type="text/css">
	.st0{fill:#FFFFFF;}
</style>
<g>
	<path class="st0" d="M20,0.2C20,0.2,20,0.2,20,0.2C9.1,0.2,0.3,9.1,0.3,20S9.1,39.8,20,39.8S39.8,30.9,39.8,20v0
		C39.7,9.1,30.9,0.2,20,0.2z M36,20l-0.8,0c0,4.1-1.6,7.9-4.5,10.8c-2.9,2.9-6.7,4.5-10.8,4.5c0,0,0,0,0,0
		c-8.4,0-15.3-6.9-15.3-15.3c0-8.4,6.9-15.3,15.3-15.3c4.1,0,7.9,1.6,10.8,4.5s4.5,6.7,4.5,10.8H36z"/>
	<path class="st0" d="M25.8,13.4l-8.4,8.4l-3.2-3.2c-0.8-0.8-2.3-0.8-3.2,0c-0.9,0.9-0.9,2.3,0,3.2l4.7,4.7c0.4,0.4,1,0.7,1.6,0.7
		c0.6,0,1.1-0.2,1.6-0.7l10-10c0.4-0.4,0.7-1,0.7-1.6c0-0.6-0.2-1.2-0.7-1.6C28.1,12.6,26.6,12.6,25.8,13.4z"/>
</g>
</svg>
