<svg xmlns="http://www.w3.org/2000/svg" xmlns:xlink="http://www.w3.org/1999/xlink" width="36.5" height="36.5" viewBox="0 0 36.5 36.5">
  <defs>
    <clipPath id="clip-Artboard_34">
      <rect width="36.5" height="36.5"/>
    </clipPath>
  </defs>
  <g id="Artboard_34" data-name="Artboard – 34" clip-path="url(#clip-Artboard_34)">
    <g id="add" transform="translate(0 -0.105)">
      <g id="Group_428" data-name="Group 428" transform="translate(0 0.106)">
        <g id="Group_427" data-name="Group 427" transform="translate(0 0)">
          <path id="Path_1024" data-name="Path 1024" d="M36.333,26.988a9.483,9.483,0,0,0-8.122-9.344v-3.9l1.315,1.1a1.821,1.821,0,0,0,1.006.387,1.3,1.3,0,0,0,1.083-.464,1.564,1.564,0,0,0-.155-2.166L16.994.454a1.517,1.517,0,0,0-1.934,0L.517,12.6a1.57,1.57,0,0,0-.155,2.166,1.57,1.57,0,0,0,2.166.155L3.92,13.75V27.993A1.552,1.552,0,0,0,5.468,29.54H17.813a9.524,9.524,0,0,0,9.16,6.885A9.36,9.36,0,0,0,36.333,26.988ZM7,11.162l9.064-7.614,9.065,7.606a1.541,1.541,0,0,0-.014.207v6.359a9.491,9.491,0,0,0-7.647,8.8H7.015V11.361A1.551,1.551,0,0,0,7,11.162ZM26.973,33.408a6.421,6.421,0,1,1,6.421-6.421A6.4,6.4,0,0,1,26.973,33.408Z" transform="translate(0 -0.106)" fill="#fff"/>
          <path id="Path_1025" data-name="Path 1025" d="M318.679,311.457h-1.857V309.6a1.547,1.547,0,1,0-3.094,0v1.857h-1.857a1.547,1.547,0,1,0,0,3.094h1.857v1.857a1.552,1.552,0,0,0,1.547,1.547,1.6,1.6,0,0,0,1.547-1.547v-1.857h1.857A1.6,1.6,0,0,0,320.226,313,1.552,1.552,0,0,0,318.679,311.457Z" transform="translate(-288.302 -286.2)" fill="#fff"/>
        </g>
      </g>
    </g>
  </g>
</svg>
