<svg xmlns="http://www.w3.org/2000/svg" xmlns:xlink="http://www.w3.org/1999/xlink" width="46.5" height="46.5" viewBox="0 0 46.5 46.5">
  <defs>
    <clipPath id="clip-Artboard_36">
      <rect width="46.5" height="46.5"/>
    </clipPath>
  </defs>
  <g id="Artboard_36" data-name="Artboard – 36" clip-path="url(#clip-Artboard_36)">
    <g id="photo" transform="translate(0 2.5)">
      <path id="Path_1028" data-name="Path 1028" d="M185.422,105.662a4.673,4.673,0,1,0-4.673-4.673A4.679,4.679,0,0,0,185.422,105.662Zm0-6.605a1.932,1.932,0,1,1-1.932,1.932A1.935,1.935,0,0,1,185.422,99.057Zm0,0" transform="translate(-164.236 -87.063)" fill="#5d5d5d"/>
      <path id="Path_1029" data-name="Path 1029" d="M45.069.5H1.709A1.71,1.71,0,0,0,0,2.208v36.7a1.71,1.71,0,0,0,1.708,1.708h43.36a1.71,1.71,0,0,0,1.708-1.708V2.208A1.71,1.71,0,0,0,45.069.5ZM44.036,3.241V24.93l-8.62-8.62a1.443,1.443,0,0,0-2.038,0L21.187,28.5,13.4,20.715a1.441,1.441,0,0,0-2.039,0L2.741,29.334V3.241ZM2.741,37.877V33.21l9.638-9.638,7.787,7.787a1.441,1.441,0,0,0,2.039,0L34.4,19.167l9.639,9.639v9.071Zm0,0" fill="#5d5d5d"/>
    </g>
  </g>
</svg>
