<svg xmlns="http://www.w3.org/2000/svg" xmlns:xlink="http://www.w3.org/1999/xlink" width="30" height="30" viewBox="0 0 30 30">
  <defs>
    <linearGradient id="linear-gradient" x1="0.167" y1="-0.15" x2="0.867" y2="0.9" gradientUnits="objectBoundingBox">
      <stop offset="0" stop-color="#f5a341"/>
      <stop offset="1" stop-color="#ee1d50"/>
    </linearGradient>
    <clipPath id="clip-Artboard_51">
      <rect width="30" height="30"/>
    </clipPath>
  </defs>
  <g id="Artboard_51" data-name="Artboard – 51" clip-path="url(#clip-Artboard_51)">
    <path id="area" d="M29.14,23.534a2.933,2.933,0,0,1,0,4.143l-.005.005-2,1.98a1.172,1.172,0,1,1-1.647-1.668l1.173-1.158H7.85a4.693,4.693,0,0,1-4.687-4.687V3.314L1.993,4.467A1.172,1.172,0,1,1,.347,2.8L2.327.846a2.953,2.953,0,0,1,4.132,0L8.439,2.8A1.172,1.172,0,0,1,6.793,4.467L5.506,3.2v18.95A2.347,2.347,0,0,0,7.85,24.492H26.775l-1.292-1.276a1.172,1.172,0,1,1,1.647-1.668l2,1.98.005.005ZM26.483,0H11.307a1.172,1.172,0,1,0,0,2.344H26.483a1.172,1.172,0,0,1,1.172,1.172V18.75a1.172,1.172,0,1,0,2.344,0V3.516A3.516,3.516,0,0,0,26.483,0ZM17.225,20.091A1.172,1.172,0,0,0,18.4,18.919V13.7a3.221,3.221,0,0,0-5.273-2.484,3.217,3.217,0,0,0-3.311-.482A1.171,1.171,0,0,0,7.85,11.6v7.324a1.172,1.172,0,1,0,2.344,0V13.7a.879.879,0,1,1,1.758,0v5.222a1.172,1.172,0,1,0,2.344,0V13.7a.879.879,0,1,1,1.758,0v5.216A1.172,1.172,0,0,0,17.225,20.091ZM22.542,6.328h-.036a2.708,2.708,0,0,0-2.7,2.706,1.172,1.172,0,1,0,2.344,0,.366.366,0,0,1,.359-.362h.036a.366.366,0,0,1,.358.338,5.686,5.686,0,0,1-1.326,1.852c-.7.766-1.381,1.39-1.387,1.4a1.172,1.172,0,0,0,.788,2.04h3.164a1.172,1.172,0,0,0,0-2.344h-.4a4.941,4.941,0,0,0,1.509-2.919,2.708,2.708,0,0,0-2.7-2.706Zm0,0" transform="translate(0.004)" fill="url(#linear-gradient)"/>
  </g>
</svg>
