<?xml version="1.0" encoding="utf-8"?>
<!-- Generator: Adobe Illustrator 23.0.5, SVG Export Plug-In . SVG Version: 6.00 Build 0)  -->
<svg version="1.1" id="Layer_1" xmlns="http://www.w3.org/2000/svg" xmlns:xlink="http://www.w3.org/1999/xlink" x="0px" y="0px"
	 viewBox="0 0 43 43" style="enable-background:new 0 0 43 43;" xml:space="preserve">
<style type="text/css">
	.st0{fill:#FFFFFF;}
</style>
<path class="st0" d="M36.2,2H6.8C3.4,2,0.5,4.8,0.5,8.3v19.8c0,3.5,2.9,6.3,6.3,6.3h1.8l0,4.7c0,0.5,0.2,0.9,0.5,1.2
	c0.3,0.3,0.8,0.5,1.2,0.5c0,0,0,0,0,0c0.4,0,0.8-0.1,1.1-0.4l7.8-6h16.8c3.5,0,6.3-2.9,6.3-6.3V8.3C42.5,4.8,39.6,2,36.2,2z"/>
</svg>
