<svg xmlns="http://www.w3.org/2000/svg" xmlns:xlink="http://www.w3.org/1999/xlink" width="41" height="41" viewBox="0 0 41 41">
  <defs>
    <clipPath id="clip-Artboard_66">
      <rect width="41" height="41"/>
    </clipPath>
  </defs>
  <g id="Artboard_66" data-name="Artboard – 66" clip-path="url(#clip-Artboard_66)">
    <g id="Artboard_64" data-name="Artboard – 64" transform="translate(-0.5 -0.7)">
      <path id="Path_1147" data-name="Path 1147" d="M41.2,26.8a6.47,6.47,0,0,0-8.8-1.6l-3.8,2.5a4.107,4.107,0,0,0-2.9-1.3H21.9c-.3,0-.4-.1-.7-.4l-.3-.3a8.688,8.688,0,0,0-11.5,0l-.7.7H2.2A1.685,1.685,0,0,0,.5,28.1v9.4A1.845,1.845,0,0,0,1,38.7a1.656,1.656,0,0,0,1.2.5H9.1l14,2.4h.3a1.929,1.929,0,0,0,1-.3L40.9,29.2A1.989,1.989,0,0,0,41.2,26.8Zm-15,4c-.1.2-.3.2-.5.2H16.3a1.7,1.7,0,0,0,0,3.4h9.4a4.082,4.082,0,0,0,4-3.4l4.6-3a3.008,3.008,0,0,1,2.9-.3L22.9,38.1c-5.6-1-8.9-1.5-10.8-1.9-2.5-.4-2.7-.5-2.8-.5H3.8v-6H9.2a1.5,1.5,0,0,0,1.1-.4l1.2-1.1a5.212,5.212,0,0,1,7,0,4.413,4.413,0,0,0,3.2,1.5h3.8a.684.684,0,0,1,.7.7C26.4,30.5,26.3,30.7,26.2,30.8Z" fill="#bcbcbc"/>
      <path id="Path_1148" data-name="Path 1148" d="M21,22.7a11.032,11.032,0,0,0,11-11h0a11,11,0,1,0-11,11Zm1.7-3.6V18a3.9,3.9,0,0,0,1.9-1.9,4.178,4.178,0,0,0,.2-3.1,3.346,3.346,0,0,0-1.2-1.7,2.044,2.044,0,0,0,.9-.5A1.656,1.656,0,0,0,25,9.6,3.862,3.862,0,0,0,22.7,6V4a7.813,7.813,0,0,1,6,7.6h0A7.721,7.721,0,0,1,22.7,19.1ZM21,10.3h0a.684.684,0,0,1-.7-.7c0-.4.3-.6.7-.6a.684.684,0,0,1,.7.7,2.353,2.353,0,0,0,.2.8A1.486,1.486,0,0,0,21,10.3Zm.7,4a.7.7,0,0,1-1.4,0,2.353,2.353,0,0,0-.2-.8,2.769,2.769,0,0,0,.9.1h0A.684.684,0,0,1,21.7,14.3ZM19.3,4V6a4.592,4.592,0,0,0-2,1.9,4.178,4.178,0,0,0-.2,3.1,2.982,2.982,0,0,0,1.2,1.7,1.617,1.617,0,0,0-1.4,1.6A4.036,4.036,0,0,0,19.3,18v1.2a7.7,7.7,0,0,1-6-7.5h0A7.843,7.843,0,0,1,19.3,4Z" fill="#bcbcbc"/>
    </g>
  </g>
</svg>
