<?xml version="1.0" encoding="utf-8"?>
<!-- Generator: Adobe Illustrator 23.0.5, SVG Export Plug-In . SVG Version: 6.00 Build 0)  -->
<svg version="1.1" id="Layer_1" xmlns="http://www.w3.org/2000/svg" xmlns:xlink="http://www.w3.org/1999/xlink" x="0px" y="0px"
	 viewBox="0 0 32.6 32.6" style="enable-background:new 0 0 32.6 32.6;" xml:space="preserve">
<path d="M28.2,2.9h-2.4V1.7c0-0.8-0.7-1.5-1.5-1.5c0,0,0,0,0,0c-0.8,0-1.5,0.7-1.5,1.5v1.1H9.7V1.7c0-0.8-0.7-1.5-1.5-1.5
	S6.7,0.9,6.7,1.7v1.1H4.3c-2.2,0-4,1.8-4.1,4.1v21.3c0,2.2,1.8,4,4.1,4.1h23.9c2.2,0,4-1.8,4.1-4.1V6.9C32.3,4.7,30.5,2.9,28.2,2.9z
	 M3.2,13.5h26.1v14.7c0,0.6-0.5,1.1-1.1,1.1H4.3c-0.6,0-1.1-0.5-1.1-1.1V13.5z M8.2,9C9,9,9.7,8.4,9.7,7.6V5.8l13.2,0v1.8
	c0,0.8,0.7,1.5,1.5,1.5s1.5-0.7,1.5-1.5V5.8l2.4,0c0.6,0,1.1,0.5,1.1,1.1v3.7l-26.1,0V6.9c0-0.6,0.5-1.1,1.1-1.1l2.4,0v1.8
	C6.7,8.4,7.4,9,8.2,9z"/>
</svg>
