<svg xmlns="http://www.w3.org/2000/svg" xmlns:xlink="http://www.w3.org/1999/xlink" width="34.6" height="34.6" viewBox="0 0 34.6 34.6">
  <defs>
    <linearGradient id="linear-gradient" x2="0.5" y2="1" gradientUnits="objectBoundingBox">
      <stop offset="0" stop-color="#ee1d50"/>
      <stop offset="1" stop-color="#ee1d50"/>
    </linearGradient>
    <linearGradient id="linear-gradient-2" x2="0.5" y2="1" gradientUnits="objectBoundingBox">
      <stop offset="0" stop-color="#f5a341"/>
      <stop offset="1" stop-color="#ee1d50"/>
    </linearGradient>
    <clipPath id="clip-Artboard_50">
      <rect width="34.6" height="34.6"/>
    </clipPath>
  </defs>
  <g id="Artboard_50" data-name="Artboard – 50" clip-path="url(#clip-Artboard_50)">
    <g id="error" transform="translate(0 -19.882)">
      <g id="Group_453" data-name="Group 453" transform="translate(0 20.882)">
        <path id="Path_1040" data-name="Path 1040" d="M220.007,333.382a1.782,1.782,0,1,0,0,3.564,1.783,1.783,0,0,0,0-3.564Z" transform="translate(-202.669 -311.105)" fill="url(#linear-gradient)"/>
        <path id="Path_1041" data-name="Path 1041" d="M33.833,49.474a6.085,6.085,0,0,0,.014-6.159L22.684,23.983a6.151,6.151,0,0,0-10.678-.007L.828,43.33a6.174,6.174,0,0,0,5.346,9.253h22.3A6.139,6.139,0,0,0,33.833,49.474Zm-2.424-1.4a3.369,3.369,0,0,1-2.944,1.7H6.167a3.323,3.323,0,0,1-2.908-1.668,3.373,3.373,0,0,1-.007-3.4L14.429,25.366a3.357,3.357,0,0,1,5.831.007L31.431,44.72A3.328,3.328,0,0,1,31.409,48.077Z" transform="translate(0 -20.882)" fill="url(#linear-gradient-2)"/>
        <path id="Path_1042" data-name="Path 1042" d="M219.1,157.227a1.938,1.938,0,0,0-1.376,1.946c.043.563.078,1.133.121,1.7.121,2.146.242,4.249.364,6.394a1.306,1.306,0,0,0,1.333,1.255,1.333,1.333,0,0,0,1.333-1.3c0-.442,0-.848.043-1.3.078-1.376.164-2.752.242-4.127.043-.891.121-1.782.164-2.673a2.2,2.2,0,0,0-.164-.891A1.787,1.787,0,0,0,219.1,157.227Z" transform="translate(-202.204 -147.46)" fill="url(#linear-gradient-2)"/>
      </g>
    </g>
  </g>
</svg>
