<?xml version="1.0" encoding="utf-8"?>
<!-- Generator: Adobe Illustrator 23.0.5, SVG Export Plug-In . SVG Version: 6.00 Build 0)  -->
<svg version="1.1" id="Layer_1" xmlns="http://www.w3.org/2000/svg" xmlns:xlink="http://www.w3.org/1999/xlink" x="0px" y="0px"
	 viewBox="0 0 40.5 40.5" style="enable-background:new 0 0 40.5 40.5;" xml:space="preserve">
<style type="text/css">
	.st0{fill:#FFFFFF;}
	.st1{fill:none;}
</style>
<g>
	<g id="Artboard_5">
		<g id="Group_592" transform="translate(-1035 -349)">
			<path class="st0" d="M1058.5,370.2l4.6-4.6c0.9-0.9,0.9-2.3,0-3.2c-0.9-0.9-2.3-0.9-3.2,0l-4.6,4.6l-4.6-4.6
				c-0.9-0.9-2.3-0.9-3.2,0c-0.9,0.9-0.9,2.3,0,3.2l4.6,4.6l-4,4c-0.9,0.9-0.9,2.3,0,3.2c0.4,0.4,1,0.7,1.6,0.7s1.2-0.2,1.6-0.7l4-4
				l4,4c0.4,0.4,1,0.7,1.6,0.7s1.2-0.2,1.6-0.7c0.9-0.9,0.9-2.3,0-3.2L1058.5,370.2z"/>
			<g id="Ellipse_20" transform="translate(1035 349)">
				<g>
					<circle class="st1" cx="20.1" cy="20.5" r="20"/>
				</g>
				<g>
					<path class="st0" d="M20.1,40.5c-11,0-20-9-20-20s9-20,20-20s20,9,20,20S31.2,40.5,20.1,40.5z M20.1,5c-8.5,0-15.5,7-15.5,15.5
						S11.6,36,20.1,36s15.5-7,15.5-15.5S28.7,5,20.1,5z"/>
				</g>
			</g>
		</g>
	</g>
</g>
</svg>
