<?xml version="1.0" encoding="utf-8"?>
<!-- Generator: Adobe Illustrator 23.0.5, SVG Export Plug-In . SVG Version: 6.00 Build 0)  -->
<svg version="1.1" id="Layer_1" xmlns="http://www.w3.org/2000/svg" xmlns:xlink="http://www.w3.org/1999/xlink" x="0px" y="0px"
	 viewBox="0 0 71 71" style="enable-background:new 0 0 71 71;" xml:space="preserve">
<style type="text/css">
	.st0{fill:#FFFFFF;}
</style>
<g>
	<path class="st0" d="M70.3,37.9c-0.1-2.1-2.1-3.8-5.9-5c-3.2-0.9-6.5-1.4-9.8-1.4l0-14.1c0-0.3-0.1-0.6-0.2-0.8
		c-0.5-1.8-2.4-3.3-5.8-4.3c-3.7-1-7.6-1.5-11.5-1.5c-3.8-0.1-7.7,0.4-11.4,1.5c-3.8,1.2-5.8,2.9-5.8,5.1c0,0.2,0,0.4,0,0.5l0.1,5.6
		c-4.2-0.7-8.5,0.3-12,2.7C4.3,28.8,1.8,32.6,1,37C0.1,41.5,1.1,46,3.6,49.7c2.5,3.7,6.4,6.2,10.8,7.1c4.8,0.9,9.8-0.3,13.6-3.3
		c2.7,0.6,5.5,0.9,8.2,0.9c1.2,3.8,9.3,5.5,16.9,5.5c0.2,0,0.4,0,0.6,0c3.6,0,7.3-0.5,10.8-1.5c3.8-1.2,5.8-2.9,5.8-5.1v-15
		C70.3,38.2,70.3,38.1,70.3,37.9z M66.6,45.3c0,0.1,0,0.2-0.1,0.3c-0.1,0.1-0.7,0.9-3.2,1.6c-3.4,0.9-6.9,1.3-10.4,1.3
		c-7.3,0-12.1-1.6-13.3-2.7l-0.1-3.3c0.8,0.3,1.5,0.6,2.3,0.8c3.6,0.9,7.3,1.4,11,1.3c3.8,0.1,7.6-0.4,11.3-1.4
		c0.8-0.2,1.6-0.5,2.4-0.9L66.6,45.3z M63.2,39.7C59.9,40.6,56.4,41,53,41c-3.4,0-6.7-0.4-9.9-1.2c-2.2-0.6-3.1-1.3-3.4-1.7
		c0.3-0.3,1.1-1,3.5-1.6c3.1-0.8,6.4-1.2,9.6-1.1H53c3.5-0.1,7,0.4,10.4,1.3c2.1,0.6,2.9,1.3,3.2,1.5C66.3,38.4,65.5,39.1,63.2,39.7
		z M39.8,53.3l-0.1-3.1c0.9,0.4,1.8,0.7,2.8,0.9c3.4,0.8,6.9,1.2,10.4,1.2c3.9,0.1,7.7-0.4,11.5-1.5c0.8-0.2,1.5-0.5,2.2-0.8v3.2
		c-0.1,0.2-0.8,0.9-3.2,1.6l-0.1,0c-3.3,0.9-6.7,1.3-10.2,1.3c-3.5,0.1-6.9-0.4-10.2-1.3C40.5,54.1,39.9,53.4,39.8,53.3z M30.7,40.2
		c0,3.7-1.6,7.2-4.3,9.7l0,0c-2.6,2.4-5.9,3.6-9.5,3.4c-3.5-0.2-6.7-1.7-9.1-4.3C3,43.7,3.3,35.4,8.7,30.5c2.4-2.2,5.6-3.4,8.9-3.4
		c0,0,0,0,0,0c1.3,0,2.6,0.2,3.9,0.6c4.6,1.4,8,5.2,9,9.9C30.6,38.4,30.7,39.3,30.7,40.2z M36,50.6c-1.6,0-3.3-0.2-4.9-0.4
		c0.8-1.1,1.5-2.3,2-3.6c0.9,0.1,1.9,0.1,2.8,0.1L36,50.6z M34.4,39.1c0.5,0,1,0,1.4,0.1l0.1,3.8c-0.6,0-1.2,0-1.7-0.1
		c0.1-0.9,0.2-1.8,0.2-2.7C34.4,39.8,34.4,39.5,34.4,39.1z M47.5,19c-3.4,0.9-6.9,1.4-10.4,1.3c-3.3,0.1-6.7-0.4-9.9-1.2
		c-2.3-0.7-3.2-1.4-3.4-1.6c0.2-0.2,0.9-0.9,3.1-1.5c3.3-0.9,6.8-1.4,10.3-1.3c3.5,0,7,0.4,10.4,1.3c2.1,0.6,2.9,1.3,3.2,1.5
		C50.4,17.7,49.6,18.3,47.5,19z M50.9,24.3c-0.1,0.2-0.1,0.4-0.1,0.6c-0.1,0.2-0.8,0.9-3.2,1.6c-3.4,0.9-6.9,1.3-10.4,1.3
		c-3.1,0-6.2-0.3-9.2-1c0,0,0,0,0,0c-1.2-1-2.6-1.7-4-2.3l-0.1-2.7c0.7,0.3,1.5,0.6,2.3,0.8c3.6,0.9,7.3,1.4,11,1.3
		c3.9,0.1,7.7-0.4,11.5-1.5c0.8-0.2,1.6-0.5,2.3-0.9V24.3z M33.7,35.3c-0.4-1.4-1-2.7-1.8-4c1.7,0.2,3.5,0.3,5.2,0.3
		c3.9,0.1,7.7-0.4,11.5-1.5c0.8-0.2,1.6-0.5,2.3-0.9v2.3c-5.2,0.2-11.3,1.3-13.9,3.8C36,35.5,34.8,35.4,33.7,35.3z"/>
	<path class="st0" d="M22.6,35.1l-6.8,6.8L13,39.3c-0.7-0.7-1.8-0.6-2.5,0.1c-0.7,0.7-0.6,1.8,0.1,2.5l4,3.8
		c0.3,0.3,0.8,0.5,1.2,0.5c0.4,0,0.9-0.2,1.2-0.5l8-8c0.7-0.7,0.7-1.8,0-2.5S23.3,34.4,22.6,35.1z"/>
</g>
</svg>
