<?xml version="1.0" encoding="utf-8"?>
<!-- Generator: Adobe Illustrator 23.0.5, SVG Export Plug-In . SVG Version: 6.00 Build 0)  -->
<svg version="1.1" id="Layer_1" xmlns="http://www.w3.org/2000/svg" xmlns:xlink="http://www.w3.org/1999/xlink" x="0px" y="0px"
	 viewBox="0 0 38.5 38.5" style="enable-background:new 0 0 38.5 38.5;" xml:space="preserve">
<style type="text/css">
	.st0{fill:#5D5D5D;}
</style>
<g>
	<path class="st0" d="M34.5,9.4l-9-9c-0.3-0.3-0.7-0.4-1-0.4H5.2C4.4,0,3.8,0.7,3.8,1.5v35.3c0,0.8,0.7,1.5,1.5,1.5h28.2
		c0.8,0,1.5-0.7,1.5-1.5V10.5C34.9,10.1,34.8,9.7,34.5,9.4z M25.9,9V5.1L29.9,9H25.9z M24.5,12H32l0,23.3H6.7V3H23v7.5
		C23,11.3,23.7,12,24.5,12z"/>
	<path class="st0" d="M10.6,17.1c0,0.8,0.7,1.5,1.5,1.5h14.6c0.8,0,1.5-0.7,1.5-1.5s-0.7-1.5-1.5-1.5H12
		C11.2,15.6,10.6,16.3,10.6,17.1z"/>
	<path class="st0" d="M26.6,22.1H12c-0.8,0-1.5,0.7-1.5,1.5s0.7,1.5,1.5,1.5h14.6c0.8,0,1.5-0.7,1.5-1.5S27.5,22.1,26.6,22.1z"/>
	<path class="st0" d="M26.6,28.7H12c-0.8,0-1.5,0.7-1.5,1.5s0.7,1.5,1.5,1.5h14.6c0.8,0,1.5-0.7,1.5-1.5S27.5,28.7,26.6,28.7z"/>
</g>
</svg>
