<svg xmlns="http://www.w3.org/2000/svg" xmlns:xlink="http://www.w3.org/1999/xlink" width="35" height="35" viewBox="0 0 35 35">
  <defs>
    <linearGradient id="linear-gradient" x1="0.315" y1="-0.056" x2="0.631" y2="1" gradientUnits="objectBoundingBox">
      <stop offset="0" stop-color="#f5a341"/>
      <stop offset="1" stop-color="#ee1d50"/>
    </linearGradient>
    <clipPath id="clip-Artboard_22">
      <rect width="35" height="35"/>
    </clipPath>
  </defs>
  <g id="Artboard_22" data-name="Artboard – 22" clip-path="url(#clip-Artboard_22)">
    <g id="pay" transform="translate(-0.334 -0.4)">
      <path id="Path_1094" data-name="Path 1094" d="M35.165,18.758c-.1-1.02-1.02-1.835-2.957-2.447a18.9,18.9,0,0,0-4.894-.714V8.663a.613.613,0,0,0-.1-.408c-.2-.918-1.224-1.631-2.855-2.141a21.384,21.384,0,0,0-5.71-.714,20.639,20.639,0,0,0-5.608.714c-1.835.612-2.855,1.428-2.855,2.549v.2l.1,2.753a8.939,8.939,0,0,0-6.016,1.326A8.2,8.2,0,0,0,.8,18.248,8.487,8.487,0,0,0,7.43,28.037a8.448,8.448,0,0,0,6.73-1.631,18.456,18.456,0,0,0,4.079.408c.612,1.937,4.588,2.753,8.361,2.753h.306a18.485,18.485,0,0,0,5.3-.714c1.835-.612,2.855-1.428,2.855-2.549V18.86C35.165,18.86,35.165,18.86,35.165,18.758ZM31.7,27.119a14.3,14.3,0,0,1-5.1.612,21.778,21.778,0,0,1-5.1-.612c-1.326-.408-1.529-.816-1.529-.816v-1.53c.408.2.918.306,1.326.51a22.438,22.438,0,0,0,5.1.612,21.913,21.913,0,0,0,5.71-.714,4.97,4.97,0,0,0,1.122-.408v1.631A2.84,2.84,0,0,1,31.7,27.119Zm1.529-4.69v.1a3.862,3.862,0,0,1-1.631.816,17.053,17.053,0,0,1-5.1.612c-3.569,0-6.016-.816-6.526-1.326V21a4.97,4.97,0,0,0,1.122.408,19.189,19.189,0,0,0,5.4.714,20.639,20.639,0,0,0,5.608-.714A3.653,3.653,0,0,0,33.228,21ZM31.6,19.675a21.148,21.148,0,0,1-5.1.612,19.508,19.508,0,0,1-4.894-.612,3.436,3.436,0,0,1-1.631-.816,3.478,3.478,0,0,1,1.733-.816,18.713,18.713,0,0,1,4.792-.612h0a21.148,21.148,0,0,1,5.1.612,3.146,3.146,0,0,1,1.529.714C33.126,18.962,32.718,19.369,31.6,19.675Zm-16.111.2a6.565,6.565,0,0,1-2.141,4.792l-.1.1h0a6.22,6.22,0,0,1-4.588,1.631,6.279,6.279,0,0,1-4.487-2.141,6.46,6.46,0,0,1-1.631-4.69,6.279,6.279,0,0,1,2.141-4.487,6.434,6.434,0,0,1,4.385-1.733h0A6.4,6.4,0,0,1,11,13.659a6.62,6.62,0,0,1,4.487,4.894C15.486,19.064,15.486,19.471,15.486,19.879Zm2.651,5.2a19.8,19.8,0,0,1-2.447-.2,9.683,9.683,0,0,0,1.02-1.733c.51,0,.918.1,1.326.1Zm-.816-5.71h.714v1.937h-.816a5.814,5.814,0,0,0,.1-1.326Q17.321,19.675,17.321,19.369Zm8.157-7.342c0,.1-.1.2-.1.306a3.862,3.862,0,0,1-1.631.816,17.33,17.33,0,0,1-5.2.612,17.6,17.6,0,0,1-4.588-.51,7.383,7.383,0,0,0-1.937-1.122V10.8a4.97,4.97,0,0,0,1.122.408,19.189,19.189,0,0,0,5.4.714,21.384,21.384,0,0,0,5.71-.714c.408-.1.816-.306,1.122-.408v1.224ZM23.847,9.377a17.053,17.053,0,0,1-5.1.612,19.508,19.508,0,0,1-4.894-.612,3.69,3.69,0,0,1-1.733-.816,3.948,3.948,0,0,1,1.529-.714,17.053,17.053,0,0,1,5.1-.612,21.148,21.148,0,0,1,5.1.612,3.948,3.948,0,0,1,1.53.714C25.275,8.765,24.867,9.071,23.847,9.377Zm-5.2,6.322a21.384,21.384,0,0,0,5.71-.714c.408-.1.816-.306,1.122-.408V15.7c-1.529.1-5.3.408-6.832,1.937a9.331,9.331,0,0,1-1.631-.1A6.763,6.763,0,0,0,16.1,15.6C16.913,15.6,17.831,15.7,18.647,15.7Z" fill="url(#linear-gradient)"/>
      <path id="Path_1095" data-name="Path 1095" d="M8.855,16.653h0a.914.914,0,0,1,.918.918.918.918,0,1,0,1.835,0A2.759,2.759,0,0,0,9.773,14.92v-.1a.918.918,0,1,0-1.835,0v.1a2.605,2.605,0,0,0-1.529,1.224A2.631,2.631,0,0,0,6.1,18.285a2.758,2.758,0,0,0,2.753,2.039,1.1,1.1,0,0,1,.714.306.926.926,0,0,1,.306.714,1.1,1.1,0,0,1-.306.714.926.926,0,0,1-.714.306h0a1.1,1.1,0,0,1-.714-.306.926.926,0,0,1-.306-.714.918.918,0,1,0-1.835,0,2.851,2.851,0,0,0,1.937,2.651V24.4a.918.918,0,0,0,1.835,0v-.408A3.56,3.56,0,0,0,11.3,22.771a3.1,3.1,0,0,0,.306-2.141h0A2.758,2.758,0,0,0,8.855,18.59a1.1,1.1,0,0,1-.714-.306,1.449,1.449,0,0,1-.2-.612A.942.942,0,0,1,8.855,16.653ZM11.4,20.732Z" transform="translate(0.105 0.167)" fill="url(#linear-gradient)"/>
    </g>
  </g>
</svg>
