<?xml version="1.0" encoding="utf-8"?>
<!-- Generator: Adobe Illustrator 23.0.5, SVG Export Plug-In . SVG Version: 6.00 Build 0)  -->
<svg version="1.1" id="Layer_1" xmlns="http://www.w3.org/2000/svg" xmlns:xlink="http://www.w3.org/1999/xlink" x="0px" y="0px"
	 viewBox="0 0 35 35" style="enable-background:new 0 0 35 35;" xml:space="preserve">
<g>
	<path d="M34.5,18.5c-0.1-1-1-1.8-2.9-2.4c-1.5-0.4-3.1-0.7-4.8-0.7V8.6c0-0.1,0-0.3-0.1-0.4c-0.2-0.9-1.2-1.6-2.8-2.1
		c-1.8-0.5-3.7-0.7-5.6-0.7c-1.9,0-3.7,0.2-5.5,0.7C11,6.7,10,7.5,10,8.6c0,0.1,0,0.2,0,0.2l0.1,2.7C8,11.2,6,11.7,4.2,12.8
		c-1.8,1.2-3,3.1-3.4,5.2c-0.8,4.4,2.1,8.7,6.5,9.6c2.3,0.4,4.7-0.1,6.6-1.6c1.3,0.3,2.7,0.4,4,0.4c0.6,1.9,4.5,2.7,8.2,2.7
		c0.1,0,0.2,0,0.3,0c1.8,0,3.5-0.2,5.2-0.7c1.8-0.6,2.8-1.4,2.8-2.5v-7.3C34.5,18.6,34.5,18.6,34.5,18.5z M31.1,26.7
		c-1.6,0.5-3.3,0.7-5,0.6c-1.7,0-3.3-0.2-5-0.6c-1.3-0.4-1.5-0.8-1.5-0.8l0-1.5c0.4,0.2,0.9,0.3,1.3,0.5c1.7,0.4,3.4,0.6,5,0.6
		c1.9,0,3.7-0.2,5.6-0.7c0.4-0.1,0.7-0.2,1.1-0.4v1.6C32.6,26,32.3,26.4,31.1,26.7z M32.6,22.1c0,0,0,0.1,0,0.1
		c-0.1,0.1-0.4,0.4-1.6,0.8c-1.6,0.4-3.3,0.7-5,0.6c-3.5,0-5.9-0.8-6.4-1.3l0-1.6c0.4,0.2,0.7,0.3,1.1,0.4c1.7,0.5,3.5,0.7,5.3,0.7
		c1.9,0,3.7-0.2,5.5-0.7c0.4-0.1,0.8-0.2,1.1-0.4L32.6,22.1z M31,19.4c-1.6,0.4-3.3,0.6-5,0.6c-1.6,0-3.3-0.2-4.8-0.6
		c-1.1-0.3-1.5-0.7-1.6-0.8c0.1-0.1,0.5-0.5,1.7-0.8c1.5-0.4,3.1-0.6,4.7-0.6H26c1.7,0,3.4,0.2,5,0.6c1.1,0.3,1.4,0.6,1.5,0.7
		C32.5,18.7,32.1,19.1,31,19.4z M15.2,19.6c0,1.8-0.8,3.5-2.1,4.7L13,24.4v0c-1.2,1.1-2.8,1.7-4.5,1.6c-1.7-0.1-3.3-0.8-4.4-2.1
		C3,22.7,2.4,21,2.5,19.3s0.8-3.3,2.1-4.4c1.2-1.1,2.7-1.7,4.3-1.7c0,0,0,0,0,0c0.6,0,1.3,0.1,1.9,0.3c2.2,0.7,3.9,2.5,4.4,4.8
		C15.2,18.8,15.2,19.2,15.2,19.6z M17.8,24.7c-0.8,0-1.6-0.1-2.4-0.2c0.4-0.5,0.7-1.1,1-1.7c0.5,0,0.9,0.1,1.3,0.1L17.8,24.7z
		 M17,19.1c0.2,0,0.5,0,0.7,0l0,1.9c-0.3,0-0.5,0-0.8,0c0.1-0.4,0.1-0.9,0.1-1.3C17,19.5,17,19.3,17,19.1z M25,11.9
		c0,0.1-0.1,0.2-0.1,0.3c-0.1,0.1-0.4,0.4-1.6,0.8c-1.6,0.4-3.3,0.7-5.1,0.6c-1.5,0-3-0.1-4.5-0.5c-0.6-0.5-1.2-0.8-1.9-1.1l0-1.3
		c0.4,0.2,0.7,0.3,1.1,0.4c1.7,0.5,3.5,0.7,5.3,0.7c1.9,0,3.8-0.2,5.6-0.7c0.4-0.1,0.8-0.3,1.1-0.4V11.9z M23.4,9.3
		c-1.6,0.4-3.3,0.7-5,0.6c-1.6,0-3.3-0.2-4.8-0.6c-1.1-0.3-1.5-0.6-1.7-0.8c0.1-0.1,0.5-0.4,1.5-0.7c1.6-0.4,3.3-0.7,5-0.6
		c1.7,0,3.4,0.2,5,0.6c1,0.3,1.4,0.6,1.5,0.7C24.8,8.7,24.4,9,23.4,9.3z M18.3,15.5c1.9,0,3.8-0.2,5.6-0.7c0.4-0.1,0.8-0.3,1.1-0.4
		v1.1c-1.5,0.1-5.2,0.4-6.7,1.9c-0.5,0-1,0-1.6-0.1c-0.2-0.7-0.5-1.3-0.9-1.9C16.6,15.4,17.5,15.5,18.3,15.5z"/>
	<path d="M8.8,16.6C8.8,16.6,8.8,16.6,8.8,16.6c0.5,0,0.9,0.4,0.9,0.9c0,0.5,0.4,0.9,0.9,0.9s0.9-0.4,0.9-0.9c0-1.2-0.7-2.2-1.8-2.6
		v-0.1c0-0.5-0.4-0.9-0.9-0.9s-0.9,0.4-0.9,0.9v0.1c-0.6,0.2-1.2,0.6-1.5,1.2c-0.4,0.6-0.5,1.4-0.3,2.1c0.3,1.2,1.4,2,2.7,2
		c0.2,0,0.5,0.1,0.7,0.3c0.2,0.2,0.3,0.4,0.3,0.7c0,0.2-0.1,0.5-0.3,0.7c-0.2,0.2-0.4,0.3-0.7,0.3c0,0,0,0,0,0
		c-0.2,0-0.5-0.1-0.7-0.3c-0.2-0.2-0.3-0.4-0.3-0.7c0-0.5-0.4-0.9-0.9-0.9s-0.9,0.4-0.9,0.9c0,1.2,0.8,2.2,1.9,2.6v0.4
		c0,0.5,0.4,0.9,0.9,0.9s0.9-0.4,0.9-0.9v-0.4c0.6-0.2,1.1-0.7,1.5-1.2c0.4-0.6,0.4-1.4,0.3-2.1l0,0c-0.3-1.2-1.4-2-2.7-2
		c-0.2,0-0.5-0.1-0.7-0.3C8,18,7.9,17.8,7.9,17.6C7.9,17,8.3,16.6,8.8,16.6z M11.3,20.6L11.3,20.6L11.3,20.6L11.3,20.6z"/>
</g>
</svg>
