<?xml version="1.0" encoding="utf-8"?>
<!-- Generator: Adobe Illustrator 23.0.5, SVG Export Plug-In . SVG Version: 6.00 Build 0)  -->
<svg version="1.1" id="Layer_1" xmlns="http://www.w3.org/2000/svg" xmlns:xlink="http://www.w3.org/1999/xlink" x="0px" y="0px"
	 viewBox="0 0 40.5 40.5" style="enable-background:new 0 0 40.5 40.5;" xml:space="preserve">
<style type="text/css">
	.st0{fill:#BCBCBC;}
</style>
<g>
	<path class="st0" d="M36.1,9.1h-3.5V2.3c0-1-0.8-1.8-1.8-1.8H9.3c-1,0-1.8,0.8-1.8,1.8v6.8H4c-1.9,0-3.5,1.6-3.5,3.5v12.8
		c0,1.9,1.6,3.5,3.5,3.5h3.5v6.3c0,1,0.8,1.8,1.8,1.8h21.5c1,0,1.8-0.8,1.8-1.8v-6.3h3.5c1.9,0,3.5-1.6,3.5-3.5V12.6
		C39.6,10.7,38,9.1,36.1,9.1z M29,24v9.4H11V24H29z M11,9.1V4h18v5.1H11z M30.8,20.4H9.3c-1,0-1.8,0.8-1.8,1.8v3.1H4V12.6h32l0,12.6
		h-3.5v-3.1C32.6,21.2,31.8,20.4,30.8,20.4z"/>
	<path class="st0" d="M30.8,14h-3.2c-1,0-1.8,0.7-1.8,1.7c0,0.5,0.2,0.9,0.5,1.3c0.3,0.3,0.8,0.5,1.3,0.6h3.2c1,0,1.7-0.8,1.7-1.8
		C32.5,14.8,31.7,14,30.8,14z"/>
	<path class="st0" d="M14.5,32.4h11c1,0,1.7-0.8,1.7-1.8c0-0.9-0.8-1.7-1.7-1.7h-11c-1,0-1.8,0.7-1.8,1.7
		C12.7,31.6,13.5,32.4,14.5,32.4z"/>
	<path class="st0" d="M14.5,28.4h11c1,0,1.8-0.8,1.8-1.8s-0.8-1.8-1.8-1.8h-11c-1,0-1.8,0.8-1.8,1.8S13.6,28.4,14.5,28.4z"/>
</g>
</svg>
