<svg xmlns="http://www.w3.org/2000/svg" xmlns:xlink="http://www.w3.org/1999/xlink" width="39" height="39" viewBox="0 0 39 39">
  <defs>
    <clipPath id="clip-Artboard_75">
      <rect width="39" height="39"/>
    </clipPath>
  </defs>
  <g id="Artboard_75" data-name="Artboard – 75" clip-path="url(#clip-Artboard_75)">
    <g id="Artboard_74" data-name="Artboard – 74" transform="translate(-0.5 0.5)">
      <path id="Path_1155" data-name="Path 1155" d="M36.1,9.1H32.6V2.3A1.793,1.793,0,0,0,30.8.5H9.3A1.793,1.793,0,0,0,7.5,2.3V9.1H4A3.543,3.543,0,0,0,.5,12.6V25.4A3.543,3.543,0,0,0,4,28.9H7.5v6.3A1.793,1.793,0,0,0,9.3,37H30.8a1.793,1.793,0,0,0,1.8-1.8V28.9h3.5a3.543,3.543,0,0,0,3.5-3.5V12.6A3.543,3.543,0,0,0,36.1,9.1ZM29,24v9.4H11V24ZM11,9.1V4H29V9.1ZM30.8,20.4H9.3a1.793,1.793,0,0,0-1.8,1.8v3.1H4V12.6H36V25.2H32.5V22.1A1.626,1.626,0,0,0,30.8,20.4Z" fill="#5d5d5d"/>
      <path id="Path_1156" data-name="Path 1156" d="M30.8,14H27.6a1.71,1.71,0,0,0-1.8,1.7,2.106,2.106,0,0,0,.5,1.3,2.618,2.618,0,0,0,1.3.6h3.2a1.71,1.71,0,0,0,1.7-1.8A1.774,1.774,0,0,0,30.8,14Z" fill="#5d5d5d"/>
      <path id="Path_1157" data-name="Path 1157" d="M14.5,32.4h11a1.71,1.71,0,0,0,1.7-1.8,1.752,1.752,0,0,0-1.7-1.7h-11a1.71,1.71,0,0,0-1.8,1.7A1.793,1.793,0,0,0,14.5,32.4Z" fill="#5d5d5d"/>
      <path id="Path_1158" data-name="Path 1158" d="M14.5,28.4h11a1.8,1.8,0,0,0,0-3.6h-11a1.793,1.793,0,0,0-1.8,1.8A1.859,1.859,0,0,0,14.5,28.4Z" fill="#5d5d5d"/>
    </g>
  </g>
</svg>
