<?xml version="1.0" encoding="utf-8"?>
<!-- Generator: Adobe Illustrator 23.0.5, SVG Export Plug-In . SVG Version: 6.00 Build 0)  -->
<svg version="1.1" id="Layer_1" xmlns="http://www.w3.org/2000/svg" xmlns:xlink="http://www.w3.org/1999/xlink" x="0px" y="0px"
	 viewBox="0 0 31.5 31.5" style="enable-background:new 0 0 31.5 31.5;" xml:space="preserve">
<style type="text/css">
	.st0{fill:#222222;}
</style>
<g>
	<path class="st0" d="M28.4,2.8L28.4,2.8c-0.4-0.1-0.8,0-1.2,0.2c-0.3,0.2-0.5,0.5-0.6,0.9l-0.5,2.4C21.9,0.5,13.9-1.3,7.7,2.3
		c-4.3,2.5-6.9,7.1-6.9,12c0,0.8,0.7,1.5,1.5,1.5c0.8,0,1.5-0.7,1.5-1.5C3.8,11.5,5,8.7,7,6.7c2.1-2.1,4.8-3.2,7.7-3.2
		c3.5,0,6.7,1.7,8.8,4.4l-2.3-0.5c-0.4-0.1-0.8,0-1.2,0.2c-0.3,0.2-0.6,0.6-0.7,1c-0.1,0.4,0,0.8,0.2,1.2s0.6,0.6,1,0.7l5.9,1.3
		c0.8,0.2,1.6-0.4,1.8-1.2l1.3-5.9C29.8,3.8,29.2,3,28.4,2.8z"/>
	<path class="st0" d="M27.2,12.5L27.2,12.5c-0.4,0-0.8,0.2-1.1,0.5s-0.4,0.7-0.4,1.1c0.2,6-4.5,11-10.5,11.2l-0.4,0
		c-3.3,0-6.4-1.5-8.5-4.1l2.3,0.6c0.8,0.2,1.7-0.3,1.9-1.1c0.1-0.4,0.1-0.8-0.2-1.2c-0.2-0.4-0.5-0.6-0.9-0.7l-5.9-1.6
		c-0.8-0.2-1.7,0.3-1.9,1.1l-1.6,5.9c-0.2,0.8,0.3,1.7,1.1,1.9c0.8,0.2,1.7-0.3,1.9-1.1l0.6-2.2c2.6,3.5,6.7,5.6,11.2,5.6
		c0.2,0,0.3,0,0.5,0C23,28.2,29.1,21.7,28.8,14C28.8,13.2,28.1,12.5,27.2,12.5z"/>
</g>
</svg>
