<svg xmlns="http://www.w3.org/2000/svg" xmlns:xlink="http://www.w3.org/1999/xlink" width="39" height="39" viewBox="0 0 39 39">
  <defs>
    <clipPath id="clip-Artboard_56">
      <rect width="39" height="39"/>
    </clipPath>
  </defs>
  <g id="Artboard_56" data-name="Artboard – 56" clip-path="url(#clip-Artboard_56)">
    <g id="Group_721" data-name="Group 721" transform="translate(-327 -1058)">
      <path id="gear" d="M15.49,12.725l-2.082,2.082,2.155,2.155,2.079-2.079a6.514,6.514,0,0,0,1.94.8v2.9h3.047V15.671a6.513,6.513,0,0,0,1.883-.789l2.079,2.079,2.155-2.155-2.082-2.082a6.515,6.515,0,0,0,.787-1.908H30.4V7.77H27.443a6.5,6.5,0,0,0-.792-1.9l2.094-2.094L26.59,1.625l-2.1,2.1a6.52,6.52,0,0,0-1.866-.777V0H19.581V2.931a6.5,6.5,0,0,0-1.922.79l-2.1-2.1L13.408,3.779,15.5,5.873a6.512,6.512,0,0,0-.792,1.9H11.728v3.047H14.7a6.511,6.511,0,0,0,.787,1.908ZM18.21,7.3l.855-.855A3.5,3.5,0,0,1,24.566,9v.618A3.5,3.5,0,1,1,18.21,7.3ZM15.153,25.905a1.22,1.22,0,0,0,.534,1.008,3.1,3.1,0,0,0,.879.445c.592.087,7.37.811,11.814,1.281l-.32,3.03C24.6,31.3,16.494,30.444,16.025,30.358a5.863,5.863,0,0,1-2.053-.926,4.269,4.269,0,0,1-1.007-.963l-.014.014L5.639,21.308A1.523,1.523,0,1,0,3.5,23.482l11.307,11.1a4.775,4.775,0,0,0,3.365,1.376H39V39H18.176a7.806,7.806,0,0,1-5.5-2.248L1.371,25.657a4.57,4.57,0,0,1,6.4-6.524l4.843,4.753a4.269,4.269,0,0,1,3.756-2.246l10.539,0h.226l-.018,1.521.018-1.521a17.974,17.974,0,0,1,10.291,3.372L39,26.134v3.747l-3.347-2.395a14.939,14.939,0,0,0-8.554-2.8h-.189l-10.539,0a1.22,1.22,0,0,0-1.219,1.218Zm0,0" transform="translate(326.998 1058)" fill="#5d5d5d"/>
    </g>
  </g>
</svg>
