<?xml version="1.0" encoding="utf-8"?>
<!-- Generator: Adobe Illustrator 23.0.5, SVG Export Plug-In . SVG Version: 6.00 Build 0)  -->
<svg version="1.1" id="Layer_1" xmlns="http://www.w3.org/2000/svg" xmlns:xlink="http://www.w3.org/1999/xlink" x="0px" y="0px"
	 viewBox="0 0 39.1 39.1" style="enable-background:new 0 0 39.1 39.1;" xml:space="preserve">
<style type="text/css">
	.st0{fill:#5D5D5D;}
</style>
<path class="st0" d="M39.1,15.9c0.1-1.3-0.8-2.4-2.1-2.5l-10.7-1l0.1-0.3l-0.3,0.2l0,0L21.7,2.2c-0.2-0.5-0.7-1-1.2-1.2
	c-0.6-0.2-1.2-0.2-1.8,0c-0.6,0.2-1,0.7-1.3,1.2l-4.4,10.2l-11,1c-0.6,0.1-1.1,0.3-1.5,0.8C0.2,14.6,0,15.2,0,15.8
	c0,0.6,0.3,1.2,0.8,1.6l8.3,7.3L6.6,35.5c0,0.2-0.1,0.3-0.1,0.5c0,0.6,0.2,1.2,0.7,1.6c0.4,0.4,1,0.7,1.6,0.7l0,0
	c0.4,0,0.8-0.1,1.2-0.3l9.5-5.7L29,38c0.4,0.2,0.8,0.3,1.2,0.3c0.2,0,0.3,0,0.5-0.1c1.2-0.3,2-1.5,1.7-2.8L30,24.7l8.3-7.3
	C38.8,17,39,16.5,39.1,15.9z M12,25c0.2-0.8-0.1-1.7-0.7-2.2l-7.5-6.6l9.9-0.9c0.8-0.1,1.6-0.6,1.9-1.4l3.9-9.2l3.9,9.2
	c0.3,0.8,1.1,1.3,1.9,1.4l9.9,0.9l-7.5,6.6c-0.6,0.6-0.9,1.4-0.7,2.2l2.2,9.8l-8.6-5.1c-0.4-0.2-0.8-0.3-1.2-0.3h0
	c-0.4,0-0.8,0.1-1.2,0.3l-8.6,5.1L12,25z"/>
</svg>
