<svg xmlns="http://www.w3.org/2000/svg" xmlns:xlink="http://www.w3.org/1999/xlink" width="39" height="39" viewBox="0 0 39 39">
  <defs>
    <linearGradient id="linear-gradient" x1="0.311" x2="0.682" y2="1" gradientUnits="objectBoundingBox">
      <stop offset="0" stop-color="#f5a341"/>
      <stop offset="1" stop-color="#ee1d50"/>
    </linearGradient>
    <clipPath id="clip-Artboard_52">
      <rect width="39" height="39"/>
    </clipPath>
  </defs>
  <g id="Artboard_52" data-name="Artboard – 52" clip-path="url(#clip-Artboard_52)">
    <path id="star" d="M39.1,15.9A2.273,2.273,0,0,0,37,13.4l-10.7-1,.1-.3-.3.2h0L21.7,2.2A2.342,2.342,0,0,0,20.5,1a2.775,2.775,0,0,0-1.8,0,2.54,2.54,0,0,0-1.3,1.2L13,12.4l-11,1a2.239,2.239,0,0,0-1.5.8A2.767,2.767,0,0,0,0,15.8a2.088,2.088,0,0,0,.8,1.6l8.3,7.3L6.6,35.5c0,.2-.1.3-.1.5a1.99,1.99,0,0,0,.7,1.6,2.36,2.36,0,0,0,1.6.7h0A2.663,2.663,0,0,0,10,38l9.5-5.7L29,38a2.663,2.663,0,0,0,1.2.3.9.9,0,0,0,.5-.1,2.323,2.323,0,0,0,1.7-2.8L30,24.7l8.3-7.3A2.239,2.239,0,0,0,39.1,15.9ZM12,25a2.242,2.242,0,0,0-.7-2.2L3.8,16.2l9.9-.9a2.32,2.32,0,0,0,1.9-1.4l3.9-9.2,3.9,9.2a2.32,2.32,0,0,0,1.9,1.4l9.9.9-7.5,6.6A2.313,2.313,0,0,0,27,25l2.2,9.8-8.6-5.1a2.663,2.663,0,0,0-1.2-.3h0a2.663,2.663,0,0,0-1.2.3L9.6,34.8Z" transform="translate(0 0.15)" fill="url(#linear-gradient)"/>
  </g>
</svg>
