<svg xmlns="http://www.w3.org/2000/svg" width="35.5" height="37.5" viewBox="0 0 35.5 37.5">
  <g id="trash-gray" transform="translate(-13.588 0.25)">
    <g id="Group_770" data-name="Group 770" transform="translate(17.344 7.119)">
      <g id="Group_769" data-name="Group 769" transform="translate(0)">
        <path id="Path_1456" data-name="Path 1456" d="M87.354,98.512l-2.359,26.881H67.7L65.342,98.512l-2.988.262,2.4,27.368a2.526,2.526,0,0,0,2.492,2.251h18.2a2.53,2.53,0,0,0,2.494-2.269l2.4-27.351Z" transform="translate(-62.354 -98.512)" fill="#bcbcbc" stroke="#bcbcbc" stroke-width="0.5"/>
      </g>
    </g>
    <g id="Group_772" data-name="Group 772" transform="translate(23.338)">
      <g id="Group_771" data-name="Group 771" transform="translate(0)">
        <path id="Path_1457" data-name="Path 1457" d="M158.8,0h-11a2.5,2.5,0,0,0-2.5,2.5V7.25h3V3h10V7.25h3V2.5A2.5,2.5,0,0,0,158.8,0Z" transform="translate(-145.297)" fill="#bcbcbc" stroke="#bcbcbc" stroke-width="0.5"/>
      </g>
    </g>
    <g id="Group_774" data-name="Group 774" transform="translate(13.838 5.75)">
      <g id="Group_773" data-name="Group 773" transform="translate(0)">
        <path id="Path_1458" data-name="Path 1458" d="M47.338,79.568h-32a1.5,1.5,0,1,0,0,3h32a1.5,1.5,0,1,0,0-3Z" transform="translate(-13.838 -79.568)" fill="#bcbcbc" stroke="#bcbcbc" stroke-width="0.5"/>
      </g>
    </g>
  </g>
</svg>
