<?xml version="1.0" encoding="utf-8"?>
<!-- Generator: Adobe Illustrator 23.0.5, SVG Export Plug-In . SVG Version: 6.00 Build 0)  -->
<svg version="1.1" id="Layer_1" xmlns="http://www.w3.org/2000/svg" xmlns:xlink="http://www.w3.org/1999/xlink" x="0px" y="0px"
	 viewBox="0 0 71 71" style="enable-background:new 0 0 71 71;" xml:space="preserve">
<style type="text/css">
	.st0{fill:#FFFFFF;}
</style>
<g>
	<path class="st0" d="M70.3,38.6c-0.1-2.1-2.1-3.8-5.9-5c-3.2-0.9-6.5-1.4-9.8-1.4l0-14.1c0-0.3-0.1-0.6-0.2-0.8
		c-0.5-1.8-2.4-3.3-5.8-4.3c-3.7-1-7.6-1.5-11.5-1.5c-3.8-0.1-7.7,0.4-11.4,1.5c-3.8,1.2-5.8,2.9-5.8,5.1c0,0.2,0,0.4,0,0.5l0.1,5.6
		c-4.2-0.7-8.5,0.3-12,2.7C4.3,29.4,1.8,33.2,1,37.6c-0.8,4.4,0.1,8.9,2.6,12.6c2.5,3.7,6.4,6.2,10.8,7.1c4.8,0.9,9.8-0.3,13.6-3.3
		c2.7,0.6,5.5,0.9,8.2,0.9c1.2,3.8,9.3,5.5,16.9,5.5c0.2,0,0.4,0,0.6,0c3.6,0,7.3-0.5,10.8-1.5c3.8-1.2,5.8-2.9,5.8-5.1v-15
		C70.3,38.8,70.3,38.7,70.3,38.6z M63.4,55.5l-0.1,0c-3.3,0.9-6.7,1.3-10.2,1.3c-3.4,0.1-6.9-0.4-10.2-1.3c-2.4-0.8-3-1.5-3.1-1.6
		l-0.1-3.1c0.9,0.4,1.8,0.7,2.8,0.9c3.4,0.8,6.9,1.2,10.4,1.2c3.9,0.1,7.7-0.4,11.5-1.5c0.8-0.2,1.5-0.5,2.2-0.8v3.2
		C66.5,54,65.8,54.7,63.4,55.5z M66.6,46c0,0.1,0,0.2-0.1,0.3c-0.1,0.1-0.7,0.9-3.2,1.6c-3.4,0.9-6.9,1.3-10.4,1.3
		c-7.3,0-12.1-1.6-13.3-2.7l-0.1-3.3c0.8,0.3,1.5,0.6,2.3,0.8c3.6,0.9,7.3,1.4,11,1.3c3.8,0,7.6-0.4,11.3-1.4
		c0.8-0.2,1.6-0.5,2.4-0.9L66.6,46z M63.2,40.3c-3.3,0.9-6.8,1.3-10.3,1.3c-3.4,0-6.7-0.4-9.9-1.2c-2.2-0.6-3.1-1.3-3.4-1.7
		c0.3-0.3,1.1-1,3.5-1.6c3.1-0.8,6.4-1.2,9.6-1.1H53c3.5-0.1,7,0.4,10.4,1.3c2.1,0.6,2.9,1.3,3.2,1.5C66.3,39,65.5,39.7,63.2,40.3z
		 M30.7,40.8c0,3.7-1.6,7.2-4.3,9.7l0,0c-2.6,2.4-5.9,3.6-9.5,3.4c-3.5-0.2-6.7-1.7-9.1-4.3c-2.4-2.6-3.6-6-3.4-9.5s1.7-6.7,4.3-9.1
		c2.4-2.2,5.6-3.4,8.9-3.4c0,0,0,0,0,0c1.3,0,2.6,0.2,3.9,0.6c4.6,1.4,8,5.2,9,9.9C30.6,39,30.7,39.9,30.7,40.8z M36,51.3
		c-1.6,0-3.3-0.2-4.9-0.4c0.8-1.1,1.5-2.3,2-3.6c0.9,0.1,1.9,0.1,2.8,0.1L36,51.3z M34.4,39.7c0.5,0,1,0,1.4,0.1l0.1,3.8
		c-0.6,0-1.1,0-1.7-0.1c0.1-0.9,0.2-1.8,0.2-2.7C34.4,40.5,34.4,40.1,34.4,39.7z M47.5,19.6c-3.4,0.9-6.9,1.3-10.4,1.3
		c-3.4,0.1-6.7-0.4-9.9-1.2c-2.3-0.7-3.2-1.4-3.4-1.6c0.2-0.2,0.9-0.9,3.1-1.5c3.3-0.9,6.8-1.4,10.3-1.3c3.5,0,7,0.4,10.4,1.3
		c2.1,0.6,2.9,1.3,3.2,1.5C50.4,18.3,49.6,19,47.5,19.6z M50.9,24.9c-0.1,0.2-0.1,0.4-0.1,0.6c-0.1,0.2-0.8,0.9-3.2,1.6
		c-3.4,0.9-6.9,1.4-10.4,1.3c-3.1,0-6.2-0.3-9.2-1c0,0,0,0,0,0c-1.2-1-2.6-1.7-4-2.3l-0.1-2.7c0.7,0.3,1.5,0.6,2.3,0.8
		c3.6,0.9,7.3,1.4,11,1.3c3.9,0.1,7.7-0.4,11.5-1.5c0.8-0.2,1.6-0.5,2.3-0.9V24.9z M33.7,36c-0.4-1.4-1-2.7-1.8-4
		c1.7,0.2,3.5,0.3,5.2,0.3c3.9,0.1,7.7-0.4,11.5-1.5c0.8-0.2,1.6-0.5,2.3-0.9v2.3c-5.2,0.2-11.3,1.3-13.9,3.8
		C36,36.1,34.8,36,33.7,36z"/>
	<path class="st0" d="M22.8,35c-0.8-0.8-2-0.8-2.8,0l-3,3l-3-3c-0.8-0.8-2-0.8-2.8,0s-0.8,2,0,2.8l3,3l-2.6,2.6
		c-0.8,0.8-0.8,2,0,2.8c0.4,0.4,0.9,0.6,1.4,0.6s1-0.2,1.4-0.6l2.6-2.6l2.6,2.6c0.4,0.4,0.9,0.6,1.4,0.6s1-0.2,1.4-0.6
		c0.8-0.8,0.8-2,0-2.8l-2.6-2.6l3-3C23.6,37,23.6,35.8,22.8,35z"/>
</g>
</svg>
