<?xml version="1.0" encoding="utf-8"?>
<!-- Generator: Adobe Illustrator 23.0.5, SVG Export Plug-In . SVG Version: 6.00 Build 0)  -->
<svg version="1.1" id="Layer_1" xmlns="http://www.w3.org/2000/svg" xmlns:xlink="http://www.w3.org/1999/xlink" x="0px" y="0px"
	 viewBox="0 0 38 38" style="enable-background:new 0 0 38 38;" xml:space="preserve">
<g>
	<g id="Ellipse_13" transform="translate(1028 198)">
		<g>
			<path d="M-1000.8-160.3c-5,0-9-4-9-9s4-9,9-9s9,4,9,9S-995.8-160.3-1000.8-160.3z M-1000.8-175.8c-3.6,0-6.5,2.9-6.5,6.5
				s2.9,6.5,6.5,6.5s6.5-2.9,6.5-6.5S-997.2-175.8-1000.8-175.8z"/>
		</g>
	</g>
	<g id="Path_1022">
		<path d="M26.1,33.1l-3.7-3.7c-0.5-0.5-0.5-1.3,0-1.8s1.3-0.5,1.8,0l2,2l4.1-3.8c0.5-0.5,1.3-0.4,1.8,0.1c0.5,0.5,0.4,1.3-0.1,1.8
			L26.1,33.1z"/>
	</g>
	<path d="M19.7,29.3H5.8c-0.6,0-1.1-0.5-1.1-1.1V13.5h26.1v9.5h2.9V6.9c0-2.2-1.8-4-4-4.1h-2.4V1.7c0-0.8-0.7-1.5-1.5-1.5
		c0,0,0,0,0,0c-0.4,0-0.8,0.2-1,0.4c-0.3,0.3-0.4,0.6-0.4,1v1.1H11.1V1.7c0-0.8-0.7-1.5-1.5-1.5S8.2,0.9,8.2,1.7v1.1H5.8
		c-2.2,0-4,1.8-4.1,4.1v21.3c0,2.2,1.8,4,4.1,4.1h13.9V29.3z M4.7,6.9c0-0.6,0.5-1.1,1.1-1.1l2.4,0v1.8C8.2,8.3,8.9,9,9.7,9
		s1.5-0.7,1.5-1.5V5.8l13.2,0v1.8C24.4,8.3,25,9,25.8,9s1.5-0.7,1.5-1.5V5.8l2.4,0c0.6,0,1.1,0.5,1.1,1.1v3.7l-26.1,0V6.9z"/>
</g>
</svg>
